<?xml version="1.0" encoding="utf-8" standalone="no"?>
<!DOCTYPE svg PUBLIC "-//W3C//DTD SVG 1.1//EN"
  "http://www.w3.org/Graphics/SVG/1.1/DTD/svg11.dtd">
<svg xmlns:xlink="http://www.w3.org/1999/xlink" width="216pt" height="360pt" viewBox="0 0 216 360" xmlns="http://www.w3.org/2000/svg" version="1.1">
 <metadata>
  <rdf:RDF xmlns:dc="http://purl.org/dc/elements/1.1/" xmlns:cc="http://creativecommons.org/ns#" xmlns:rdf="http://www.w3.org/1999/02/22-rdf-syntax-ns#">
   <cc:Work>
    <dc:type rdf:resource="http://purl.org/dc/dcmitype/StillImage"/>
    <dc:date>2024-03-06T09:36:57.406806</dc:date>
    <dc:format>image/svg+xml</dc:format>
    <dc:creator>
     <cc:Agent>
      <dc:title>Matplotlib v3.7.2, https://matplotlib.org/</dc:title>
     </cc:Agent>
    </dc:creator>
   </cc:Work>
  </rdf:RDF>
 </metadata>
 <defs>
  <style type="text/css">*{stroke-linejoin: round; stroke-linecap: butt}</style>
 </defs>
 <g id="figure_1">
  <g id="patch_1">
   <path d="M 0 360 
L 216 360 
L 216 0 
L 0 0 
z
" style="fill: #ffffff"/>
  </g>
  <g id="axes_1">
   <g id="patch_2">
    <path d="M 27 102.286957 
L 194.4 102.286957 
L 194.4 43.2 
L 27 43.2 
z
" style="fill: #ffffff"/>
   </g>
   <g id="patch_3">
    <path d="M 32.8032 83.075202 
L 54.6768 83.075202 
L 54.6768 80.336521 
L 32.8032 80.336521 
L 32.8032 83.075202 
z
" clip-path="url(#p01de8e441e)" style="fill: #696969; stroke: #3f3f3f; stroke-linejoin: miter"/>
   </g>
   <g id="patch_4">
    <path d="M 55.1232 66.322425 
L 76.9968 66.322425 
L 76.9968 62.604157 
L 55.1232 62.604157 
L 55.1232 66.322425 
z
" clip-path="url(#p01de8e441e)" style="fill: #93ba45; stroke: #3f3f3f; stroke-linejoin: miter"/>
   </g>
   <g id="patch_5">
    <path d="M 88.6032 94.067518 
L 110.4768 94.067518 
L 110.4768 93.111269 
L 88.6032 93.111269 
L 88.6032 94.067518 
z
" clip-path="url(#p01de8e441e)" style="fill: #696969; stroke: #3f3f3f; stroke-linejoin: miter"/>
   </g>
   <g id="patch_6">
    <path d="M 110.9232 75.02778 
L 132.7968 75.02778 
L 132.7968 70.53178 
L 110.9232 70.53178 
L 110.9232 75.02778 
z
" clip-path="url(#p01de8e441e)" style="fill: #93ba45; stroke: #3f3f3f; stroke-linejoin: miter"/>
   </g>
   <g id="patch_7">
    <path d="M 144.4032 88.49222 
L 166.2768 88.49222 
L 166.2768 86.709936 
L 144.4032 86.709936 
L 144.4032 88.49222 
z
" clip-path="url(#p01de8e441e)" style="fill: #696969; stroke: #3f3f3f; stroke-linejoin: miter"/>
   </g>
   <g id="patch_8">
    <path d="M 166.7232 64.916008 
L 188.5968 64.916008 
L 188.5968 58.195753 
L 166.7232 58.195753 
L 166.7232 64.916008 
z
" clip-path="url(#p01de8e441e)" style="fill: #93ba45; stroke: #3f3f3f; stroke-linejoin: miter"/>
   </g>
   <g id="patch_9">
    <path d="M 54.9 102.286957 
L 54.9 102.286957 
L 54.9 102.286957 
L 54.9 102.286957 
z
" clip-path="url(#p01de8e441e)" style="fill: #696969; stroke: #3f3f3f; stroke-width: 0.5; stroke-linejoin: miter"/>
   </g>
   <g id="patch_10">
    <path d="M 54.9 102.286957 
L 54.9 102.286957 
L 54.9 102.286957 
L 54.9 102.286957 
z
" clip-path="url(#p01de8e441e)" style="fill: #93ba45; stroke: #3f3f3f; stroke-width: 0.5; stroke-linejoin: miter"/>
   </g>
   <g id="matplotlib.axis_1">
    <g id="xtick_1">
     <g id="line2d_1">
      <defs>
       <path id="mf55ad39bd8" d="M 0 0 
L 0 3.5 
" style="stroke: #000000; stroke-width: 0.8"/>
      </defs>
      <g>
       <use xlink:href="#mf55ad39bd8" x="54.9" y="102.286957" style="stroke: #000000; stroke-width: 0.8"/>
      </g>
     </g>
     <g id="text_1">
      <!-- PTFE -->
      <g transform="translate(42.796094 116.885394) scale(0.1 -0.1)">
       <defs>
        <path id="DejaVuSans-50" d="M 1259 4147 
L 1259 2394 
L 2053 2394 
Q 2494 2394 2734 2622 
Q 2975 2850 2975 3272 
Q 2975 3691 2734 3919 
Q 2494 4147 2053 4147 
L 1259 4147 
z
M 628 4666 
L 2053 4666 
Q 2838 4666 3239 4311 
Q 3641 3956 3641 3272 
Q 3641 2581 3239 2228 
Q 2838 1875 2053 1875 
L 1259 1875 
L 1259 0 
L 628 0 
L 628 4666 
z
" transform="scale(0.015625)"/>
        <path id="DejaVuSans-54" d="M -19 4666 
L 3928 4666 
L 3928 4134 
L 2272 4134 
L 2272 0 
L 1638 0 
L 1638 4134 
L -19 4134 
L -19 4666 
z
" transform="scale(0.015625)"/>
        <path id="DejaVuSans-46" d="M 628 4666 
L 3309 4666 
L 3309 4134 
L 1259 4134 
L 1259 2759 
L 3109 2759 
L 3109 2228 
L 1259 2228 
L 1259 0 
L 628 0 
L 628 4666 
z
" transform="scale(0.015625)"/>
        <path id="DejaVuSans-45" d="M 628 4666 
L 3578 4666 
L 3578 4134 
L 1259 4134 
L 1259 2753 
L 3481 2753 
L 3481 2222 
L 1259 2222 
L 1259 531 
L 3634 531 
L 3634 0 
L 628 0 
L 628 4666 
z
" transform="scale(0.015625)"/>
       </defs>
       <use xlink:href="#DejaVuSans-50"/>
       <use xlink:href="#DejaVuSans-54" x="60.302734"/>
       <use xlink:href="#DejaVuSans-46" x="121.386719"/>
       <use xlink:href="#DejaVuSans-45" x="178.90625"/>
      </g>
     </g>
    </g>
    <g id="xtick_2">
     <g id="line2d_2">
      <g>
       <use xlink:href="#mf55ad39bd8" x="110.7" y="102.286957" style="stroke: #000000; stroke-width: 0.8"/>
      </g>
     </g>
     <g id="text_2">
      <!-- POM -->
      <g transform="translate(99.435156 116.885394) scale(0.1 -0.1)">
       <defs>
        <path id="DejaVuSans-4f" d="M 2522 4238 
Q 1834 4238 1429 3725 
Q 1025 3213 1025 2328 
Q 1025 1447 1429 934 
Q 1834 422 2522 422 
Q 3209 422 3611 934 
Q 4013 1447 4013 2328 
Q 4013 3213 3611 3725 
Q 3209 4238 2522 4238 
z
M 2522 4750 
Q 3503 4750 4090 4092 
Q 4678 3434 4678 2328 
Q 4678 1225 4090 567 
Q 3503 -91 2522 -91 
Q 1538 -91 948 565 
Q 359 1222 359 2328 
Q 359 3434 948 4092 
Q 1538 4750 2522 4750 
z
" transform="scale(0.015625)"/>
        <path id="DejaVuSans-4d" d="M 628 4666 
L 1569 4666 
L 2759 1491 
L 3956 4666 
L 4897 4666 
L 4897 0 
L 4281 0 
L 4281 4097 
L 3078 897 
L 2444 897 
L 1241 4097 
L 1241 0 
L 628 0 
L 628 4666 
z
" transform="scale(0.015625)"/>
       </defs>
       <use xlink:href="#DejaVuSans-50"/>
       <use xlink:href="#DejaVuSans-4f" x="60.302734"/>
       <use xlink:href="#DejaVuSans-4d" x="139.013672"/>
      </g>
     </g>
    </g>
    <g id="xtick_3">
     <g id="line2d_3">
      <g>
       <use xlink:href="#mf55ad39bd8" x="166.5" y="102.286957" style="stroke: #000000; stroke-width: 0.8"/>
      </g>
     </g>
     <g id="text_3">
      <!-- PS -->
      <g transform="translate(160.310937 116.885394) scale(0.1 -0.1)">
       <defs>
        <path id="DejaVuSans-53" d="M 3425 4513 
L 3425 3897 
Q 3066 4069 2747 4153 
Q 2428 4238 2131 4238 
Q 1616 4238 1336 4038 
Q 1056 3838 1056 3469 
Q 1056 3159 1242 3001 
Q 1428 2844 1947 2747 
L 2328 2669 
Q 3034 2534 3370 2195 
Q 3706 1856 3706 1288 
Q 3706 609 3251 259 
Q 2797 -91 1919 -91 
Q 1588 -91 1214 -16 
Q 841 59 441 206 
L 441 856 
Q 825 641 1194 531 
Q 1563 422 1919 422 
Q 2459 422 2753 634 
Q 3047 847 3047 1241 
Q 3047 1584 2836 1778 
Q 2625 1972 2144 2069 
L 1759 2144 
Q 1053 2284 737 2584 
Q 422 2884 422 3419 
Q 422 4038 858 4394 
Q 1294 4750 2059 4750 
Q 2388 4750 2728 4690 
Q 3069 4631 3425 4513 
z
" transform="scale(0.015625)"/>
       </defs>
       <use xlink:href="#DejaVuSans-50"/>
       <use xlink:href="#DejaVuSans-53" x="60.302734"/>
      </g>
     </g>
    </g>
   </g>
   <g id="matplotlib.axis_2">
    <g id="ytick_1">
     <g id="line2d_4">
      <defs>
       <path id="m500614d672" d="M 0 0 
L -3.5 0 
" style="stroke: #000000; stroke-width: 0.8"/>
      </defs>
      <g>
       <use xlink:href="#m500614d672" x="27" y="102.286957" style="stroke: #000000; stroke-width: 0.8"/>
      </g>
     </g>
     <g id="text_4">
      <!-- 0 -->
      <g transform="translate(13.6375 106.086175) scale(0.1 -0.1)">
       <defs>
        <path id="DejaVuSans-30" d="M 2034 4250 
Q 1547 4250 1301 3770 
Q 1056 3291 1056 2328 
Q 1056 1369 1301 889 
Q 1547 409 2034 409 
Q 2525 409 2770 889 
Q 3016 1369 3016 2328 
Q 3016 3291 2770 3770 
Q 2525 4250 2034 4250 
z
M 2034 4750 
Q 2819 4750 3233 4129 
Q 3647 3509 3647 2328 
Q 3647 1150 3233 529 
Q 2819 -91 2034 -91 
Q 1250 -91 836 529 
Q 422 1150 422 2328 
Q 422 3509 836 4129 
Q 1250 4750 2034 4750 
z
" transform="scale(0.015625)"/>
       </defs>
       <use xlink:href="#DejaVuSans-30"/>
      </g>
     </g>
    </g>
    <g id="ytick_2">
     <g id="line2d_5">
      <g>
       <use xlink:href="#m500614d672" x="27" y="72.743478" style="stroke: #000000; stroke-width: 0.8"/>
      </g>
     </g>
     <g id="text_5">
      <!-- 100 -->
      <g transform="translate(0.9125 76.542697) scale(0.1 -0.1)">
       <defs>
        <path id="DejaVuSans-31" d="M 794 531 
L 1825 531 
L 1825 4091 
L 703 3866 
L 703 4441 
L 1819 4666 
L 2450 4666 
L 2450 531 
L 3481 531 
L 3481 0 
L 794 0 
L 794 531 
z
" transform="scale(0.015625)"/>
       </defs>
       <use xlink:href="#DejaVuSans-31"/>
       <use xlink:href="#DejaVuSans-30" x="63.623047"/>
       <use xlink:href="#DejaVuSans-30" x="127.246094"/>
      </g>
     </g>
    </g>
    <g id="ytick_3">
     <g id="line2d_6">
      <g>
       <use xlink:href="#m500614d672" x="27" y="43.2" style="stroke: #000000; stroke-width: 0.8"/>
      </g>
     </g>
     <g id="text_6">
      <!-- 200 -->
      <g transform="translate(0.9125 46.999219) scale(0.1 -0.1)">
       <defs>
        <path id="DejaVuSans-32" d="M 1228 531 
L 3431 531 
L 3431 0 
L 469 0 
L 469 531 
Q 828 903 1448 1529 
Q 2069 2156 2228 2338 
Q 2531 2678 2651 2914 
Q 2772 3150 2772 3378 
Q 2772 3750 2511 3984 
Q 2250 4219 1831 4219 
Q 1534 4219 1204 4116 
Q 875 4013 500 3803 
L 500 4441 
Q 881 4594 1212 4672 
Q 1544 4750 1819 4750 
Q 2544 4750 2975 4387 
Q 3406 4025 3406 3419 
Q 3406 3131 3298 2873 
Q 3191 2616 2906 2266 
Q 2828 2175 2409 1742 
Q 1991 1309 1228 531 
z
" transform="scale(0.015625)"/>
       </defs>
       <use xlink:href="#DejaVuSans-32"/>
       <use xlink:href="#DejaVuSans-30" x="63.623047"/>
       <use xlink:href="#DejaVuSans-30" x="127.246094"/>
      </g>
     </g>
    </g>
   </g>
   <g id="line2d_7">
    <path d="M 43.74 83.075202 
L 43.74 86.471742 
" clip-path="url(#p01de8e441e)" style="fill: none; stroke: #3f3f3f; stroke-linecap: square"/>
   </g>
   <g id="line2d_8">
    <path d="M 43.74 80.336521 
L 43.74 79.087349 
" clip-path="url(#p01de8e441e)" style="fill: none; stroke: #3f3f3f; stroke-linecap: square"/>
   </g>
   <g id="line2d_9">
    <path d="M 38.2716 86.471742 
L 49.2084 86.471742 
" clip-path="url(#p01de8e441e)" style="fill: none; stroke: #3f3f3f; stroke-linecap: square"/>
   </g>
   <g id="line2d_10">
    <path d="M 38.2716 79.087349 
L 49.2084 79.087349 
" clip-path="url(#p01de8e441e)" style="fill: none; stroke: #3f3f3f; stroke-linecap: square"/>
   </g>
   <g id="line2d_11">
    <path d="M 66.06 66.322425 
L 66.06 67.742063 
" clip-path="url(#p01de8e441e)" style="fill: none; stroke: #3f3f3f; stroke-linecap: square"/>
   </g>
   <g id="line2d_12">
    <path d="M 66.06 62.604157 
L 66.06 57.365507 
" clip-path="url(#p01de8e441e)" style="fill: none; stroke: #3f3f3f; stroke-linecap: square"/>
   </g>
   <g id="line2d_13">
    <path d="M 60.5916 67.742063 
L 71.5284 67.742063 
" clip-path="url(#p01de8e441e)" style="fill: none; stroke: #3f3f3f; stroke-linecap: square"/>
   </g>
   <g id="line2d_14">
    <path d="M 60.5916 57.365507 
L 71.5284 57.365507 
" clip-path="url(#p01de8e441e)" style="fill: none; stroke: #3f3f3f; stroke-linecap: square"/>
   </g>
   <g id="line2d_15">
    <path d="M 99.54 94.067518 
L 99.54 94.631946 
" clip-path="url(#p01de8e441e)" style="fill: none; stroke: #3f3f3f; stroke-linecap: square"/>
   </g>
   <g id="line2d_16">
    <path d="M 99.54 93.111269 
L 99.54 92.194313 
" clip-path="url(#p01de8e441e)" style="fill: none; stroke: #3f3f3f; stroke-linecap: square"/>
   </g>
   <g id="line2d_17">
    <path d="M 94.0716 94.631946 
L 105.0084 94.631946 
" clip-path="url(#p01de8e441e)" style="fill: none; stroke: #3f3f3f; stroke-linecap: square"/>
   </g>
   <g id="line2d_18">
    <path d="M 94.0716 92.194313 
L 105.0084 92.194313 
" clip-path="url(#p01de8e441e)" style="fill: none; stroke: #3f3f3f; stroke-linecap: square"/>
   </g>
   <g id="line2d_19">
    <path d="M 121.86 75.02778 
L 121.86 77.751984 
" clip-path="url(#p01de8e441e)" style="fill: none; stroke: #3f3f3f; stroke-linecap: square"/>
   </g>
   <g id="line2d_20">
    <path d="M 121.86 70.53178 
L 121.86 70.076884 
" clip-path="url(#p01de8e441e)" style="fill: none; stroke: #3f3f3f; stroke-linecap: square"/>
   </g>
   <g id="line2d_21">
    <path d="M 116.3916 77.751984 
L 127.3284 77.751984 
" clip-path="url(#p01de8e441e)" style="fill: none; stroke: #3f3f3f; stroke-linecap: square"/>
   </g>
   <g id="line2d_22">
    <path d="M 116.3916 70.076884 
L 127.3284 70.076884 
" clip-path="url(#p01de8e441e)" style="fill: none; stroke: #3f3f3f; stroke-linecap: square"/>
   </g>
   <g id="line2d_23">
    <path d="M 155.34 88.49222 
L 155.34 88.850287 
" clip-path="url(#p01de8e441e)" style="fill: none; stroke: #3f3f3f; stroke-linecap: square"/>
   </g>
   <g id="line2d_24">
    <path d="M 155.34 86.709936 
L 155.34 85.466377 
" clip-path="url(#p01de8e441e)" style="fill: none; stroke: #3f3f3f; stroke-linecap: square"/>
   </g>
   <g id="line2d_25">
    <path d="M 149.8716 88.850287 
L 160.8084 88.850287 
" clip-path="url(#p01de8e441e)" style="fill: none; stroke: #3f3f3f; stroke-linecap: square"/>
   </g>
   <g id="line2d_26">
    <path d="M 149.8716 85.466377 
L 160.8084 85.466377 
" clip-path="url(#p01de8e441e)" style="fill: none; stroke: #3f3f3f; stroke-linecap: square"/>
   </g>
   <g id="line2d_27">
    <path d="M 177.66 64.916008 
L 177.66 73.768932 
" clip-path="url(#p01de8e441e)" style="fill: none; stroke: #3f3f3f; stroke-linecap: square"/>
   </g>
   <g id="line2d_28">
    <path d="M 177.66 58.195753 
L 177.66 53.214944 
" clip-path="url(#p01de8e441e)" style="fill: none; stroke: #3f3f3f; stroke-linecap: square"/>
   </g>
   <g id="line2d_29">
    <path d="M 172.1916 73.768932 
L 183.1284 73.768932 
" clip-path="url(#p01de8e441e)" style="fill: none; stroke: #3f3f3f; stroke-linecap: square"/>
   </g>
   <g id="line2d_30">
    <path d="M 172.1916 53.214944 
L 183.1284 53.214944 
" clip-path="url(#p01de8e441e)" style="fill: none; stroke: #3f3f3f; stroke-linecap: square"/>
   </g>
   <g id="line2d_31">
    <path d="M 32.8032 80.590669 
L 54.6768 80.590669 
" clip-path="url(#p01de8e441e)" style="fill: none; stroke: #3f3f3f; stroke-linecap: square"/>
   </g>
   <g id="line2d_32">
    <path d="M 55.1232 64.615181 
L 76.9968 64.615181 
" clip-path="url(#p01de8e441e)" style="fill: none; stroke: #3f3f3f; stroke-linecap: square"/>
   </g>
   <g id="line2d_33">
    <path d="M 88.6032 93.515498 
L 110.4768 93.515498 
" clip-path="url(#p01de8e441e)" style="fill: none; stroke: #3f3f3f; stroke-linecap: square"/>
   </g>
   <g id="line2d_34">
    <path d="M 110.9232 73.202288 
L 132.7968 73.202288 
" clip-path="url(#p01de8e441e)" style="fill: none; stroke: #3f3f3f; stroke-linecap: square"/>
   </g>
   <g id="line2d_35">
    <path d="M 144.4032 87.31639 
L 166.2768 87.31639 
" clip-path="url(#p01de8e441e)" style="fill: none; stroke: #3f3f3f; stroke-linecap: square"/>
   </g>
   <g id="line2d_36">
    <path d="M 166.7232 60.473038 
L 188.5968 60.473038 
" clip-path="url(#p01de8e441e)" style="fill: none; stroke: #3f3f3f; stroke-linecap: square"/>
   </g>
   <g id="patch_11">
    <path d="M 27 102.286957 
L 27 43.2 
" style="fill: none; stroke: #000000; stroke-width: 0.8; stroke-linejoin: miter; stroke-linecap: square"/>
   </g>
   <g id="patch_12">
    <path d="M 27 102.286957 
L 194.4 102.286957 
" style="fill: none; stroke: #000000; stroke-width: 0.8; stroke-linejoin: miter; stroke-linecap: square"/>
   </g>
  </g>
  <g id="axes_2">
   <g id="patch_13">
    <path d="M 27 208.643478 
L 194.4 208.643478 
L 194.4 149.556522 
L 27 149.556522 
z
" style="fill: #ffffff"/>
   </g>
   <g id="patch_14">
    <path d="M 32.8032 194.089401 
L 54.6768 194.089401 
L 54.6768 185.410192 
L 32.8032 185.410192 
L 32.8032 194.089401 
z
" clip-path="url(#pf90a773082)" style="fill: #696969; stroke: #3f3f3f; stroke-linejoin: miter"/>
   </g>
   <g id="patch_15">
    <path d="M 55.1232 171.531847 
L 76.9968 171.531847 
L 76.9968 159.255498 
L 55.1232 159.255498 
L 55.1232 171.531847 
z
" clip-path="url(#pf90a773082)" style="fill: #93ba45; stroke: #3f3f3f; stroke-linejoin: miter"/>
   </g>
   <g id="patch_16">
    <path d="M 88.6032 195.358958 
L 110.4768 195.358958 
L 110.4768 193.028642 
L 88.6032 193.028642 
L 88.6032 195.358958 
z
" clip-path="url(#pf90a773082)" style="fill: #696969; stroke: #3f3f3f; stroke-linejoin: miter"/>
   </g>
   <g id="patch_17">
    <path d="M 110.9232 182.253028 
L 132.7968 182.253028 
L 132.7968 168.546996 
L 110.9232 168.546996 
L 110.9232 182.253028 
z
" clip-path="url(#pf90a773082)" style="fill: #93ba45; stroke: #3f3f3f; stroke-linejoin: miter"/>
   </g>
   <g id="patch_18">
    <path d="M 144.4032 198.165662 
L 166.2768 198.165662 
L 166.2768 194.368365 
L 144.4032 194.368365 
L 144.4032 198.165662 
z
" clip-path="url(#pf90a773082)" style="fill: #696969; stroke: #3f3f3f; stroke-linejoin: miter"/>
   </g>
   <g id="patch_19">
    <path d="M 166.7232 167.008741 
L 188.5968 167.008741 
L 188.5968 161.946244 
L 166.7232 161.946244 
L 166.7232 167.008741 
z
" clip-path="url(#pf90a773082)" style="fill: #93ba45; stroke: #3f3f3f; stroke-linejoin: miter"/>
   </g>
   <g id="patch_20">
    <path d="M 54.9 208.643478 
L 54.9 208.643478 
L 54.9 208.643478 
L 54.9 208.643478 
z
" clip-path="url(#pf90a773082)" style="fill: #696969; stroke: #3f3f3f; stroke-width: 0.5; stroke-linejoin: miter"/>
   </g>
   <g id="patch_21">
    <path d="M 54.9 208.643478 
L 54.9 208.643478 
L 54.9 208.643478 
L 54.9 208.643478 
z
" clip-path="url(#pf90a773082)" style="fill: #93ba45; stroke: #3f3f3f; stroke-width: 0.5; stroke-linejoin: miter"/>
   </g>
   <g id="matplotlib.axis_3">
    <g id="xtick_4">
     <g id="line2d_37">
      <g>
       <use xlink:href="#mf55ad39bd8" x="54.9" y="208.643478" style="stroke: #000000; stroke-width: 0.8"/>
      </g>
     </g>
     <g id="text_7">
      <!-- PTFE -->
      <g transform="translate(42.796094 223.241916) scale(0.1 -0.1)">
       <use xlink:href="#DejaVuSans-50"/>
       <use xlink:href="#DejaVuSans-54" x="60.302734"/>
       <use xlink:href="#DejaVuSans-46" x="121.386719"/>
       <use xlink:href="#DejaVuSans-45" x="178.90625"/>
      </g>
     </g>
    </g>
    <g id="xtick_5">
     <g id="line2d_38">
      <g>
       <use xlink:href="#mf55ad39bd8" x="110.7" y="208.643478" style="stroke: #000000; stroke-width: 0.8"/>
      </g>
     </g>
     <g id="text_8">
      <!-- POM -->
      <g transform="translate(99.435156 223.241916) scale(0.1 -0.1)">
       <use xlink:href="#DejaVuSans-50"/>
       <use xlink:href="#DejaVuSans-4f" x="60.302734"/>
       <use xlink:href="#DejaVuSans-4d" x="139.013672"/>
      </g>
     </g>
    </g>
    <g id="xtick_6">
     <g id="line2d_39">
      <g>
       <use xlink:href="#mf55ad39bd8" x="166.5" y="208.643478" style="stroke: #000000; stroke-width: 0.8"/>
      </g>
     </g>
     <g id="text_9">
      <!-- PS -->
      <g transform="translate(160.310937 223.241916) scale(0.1 -0.1)">
       <use xlink:href="#DejaVuSans-50"/>
       <use xlink:href="#DejaVuSans-53" x="60.302734"/>
      </g>
     </g>
    </g>
   </g>
   <g id="matplotlib.axis_4">
    <g id="ytick_4">
     <g id="line2d_40">
      <g>
       <use xlink:href="#m500614d672" x="27" y="208.643478" style="stroke: #000000; stroke-width: 0.8"/>
      </g>
     </g>
     <g id="text_10">
      <!-- 0 -->
      <g transform="translate(13.6375 212.442697) scale(0.1 -0.1)">
       <use xlink:href="#DejaVuSans-30"/>
      </g>
     </g>
    </g>
    <g id="ytick_5">
     <g id="line2d_41">
      <g>
       <use xlink:href="#m500614d672" x="27" y="179.1" style="stroke: #000000; stroke-width: 0.8"/>
      </g>
     </g>
     <g id="text_11">
      <!-- 100 -->
      <g transform="translate(0.9125 182.899219) scale(0.1 -0.1)">
       <use xlink:href="#DejaVuSans-31"/>
       <use xlink:href="#DejaVuSans-30" x="63.623047"/>
       <use xlink:href="#DejaVuSans-30" x="127.246094"/>
      </g>
     </g>
    </g>
    <g id="ytick_6">
     <g id="line2d_42">
      <g>
       <use xlink:href="#m500614d672" x="27" y="149.556522" style="stroke: #000000; stroke-width: 0.8"/>
      </g>
     </g>
     <g id="text_12">
      <!-- 200 -->
      <g transform="translate(0.9125 153.35574) scale(0.1 -0.1)">
       <use xlink:href="#DejaVuSans-32"/>
       <use xlink:href="#DejaVuSans-30" x="63.623047"/>
       <use xlink:href="#DejaVuSans-30" x="127.246094"/>
      </g>
     </g>
    </g>
    <g id="text_13">
     <!-- Areal average roughness $Sa$ (μm) -->
     <g transform="translate(-5.1875 263.25) rotate(-90) scale(0.1 -0.1)">
      <defs>
       <path id="DejaVuSans-41" d="M 2188 4044 
L 1331 1722 
L 3047 1722 
L 2188 4044 
z
M 1831 4666 
L 2547 4666 
L 4325 0 
L 3669 0 
L 3244 1197 
L 1141 1197 
L 716 0 
L 50 0 
L 1831 4666 
z
" transform="scale(0.015625)"/>
       <path id="DejaVuSans-72" d="M 2631 2963 
Q 2534 3019 2420 3045 
Q 2306 3072 2169 3072 
Q 1681 3072 1420 2755 
Q 1159 2438 1159 1844 
L 1159 0 
L 581 0 
L 581 3500 
L 1159 3500 
L 1159 2956 
Q 1341 3275 1631 3429 
Q 1922 3584 2338 3584 
Q 2397 3584 2469 3576 
Q 2541 3569 2628 3553 
L 2631 2963 
z
" transform="scale(0.015625)"/>
       <path id="DejaVuSans-65" d="M 3597 1894 
L 3597 1613 
L 953 1613 
Q 991 1019 1311 708 
Q 1631 397 2203 397 
Q 2534 397 2845 478 
Q 3156 559 3463 722 
L 3463 178 
Q 3153 47 2828 -22 
Q 2503 -91 2169 -91 
Q 1331 -91 842 396 
Q 353 884 353 1716 
Q 353 2575 817 3079 
Q 1281 3584 2069 3584 
Q 2775 3584 3186 3129 
Q 3597 2675 3597 1894 
z
M 3022 2063 
Q 3016 2534 2758 2815 
Q 2500 3097 2075 3097 
Q 1594 3097 1305 2825 
Q 1016 2553 972 2059 
L 3022 2063 
z
" transform="scale(0.015625)"/>
       <path id="DejaVuSans-61" d="M 2194 1759 
Q 1497 1759 1228 1600 
Q 959 1441 959 1056 
Q 959 750 1161 570 
Q 1363 391 1709 391 
Q 2188 391 2477 730 
Q 2766 1069 2766 1631 
L 2766 1759 
L 2194 1759 
z
M 3341 1997 
L 3341 0 
L 2766 0 
L 2766 531 
Q 2569 213 2275 61 
Q 1981 -91 1556 -91 
Q 1019 -91 701 211 
Q 384 513 384 1019 
Q 384 1609 779 1909 
Q 1175 2209 1959 2209 
L 2766 2209 
L 2766 2266 
Q 2766 2663 2505 2880 
Q 2244 3097 1772 3097 
Q 1472 3097 1187 3025 
Q 903 2953 641 2809 
L 641 3341 
Q 956 3463 1253 3523 
Q 1550 3584 1831 3584 
Q 2591 3584 2966 3190 
Q 3341 2797 3341 1997 
z
" transform="scale(0.015625)"/>
       <path id="DejaVuSans-6c" d="M 603 4863 
L 1178 4863 
L 1178 0 
L 603 0 
L 603 4863 
z
" transform="scale(0.015625)"/>
       <path id="DejaVuSans-20" transform="scale(0.015625)"/>
       <path id="DejaVuSans-76" d="M 191 3500 
L 800 3500 
L 1894 563 
L 2988 3500 
L 3597 3500 
L 2284 0 
L 1503 0 
L 191 3500 
z
" transform="scale(0.015625)"/>
       <path id="DejaVuSans-67" d="M 2906 1791 
Q 2906 2416 2648 2759 
Q 2391 3103 1925 3103 
Q 1463 3103 1205 2759 
Q 947 2416 947 1791 
Q 947 1169 1205 825 
Q 1463 481 1925 481 
Q 2391 481 2648 825 
Q 2906 1169 2906 1791 
z
M 3481 434 
Q 3481 -459 3084 -895 
Q 2688 -1331 1869 -1331 
Q 1566 -1331 1297 -1286 
Q 1028 -1241 775 -1147 
L 775 -588 
Q 1028 -725 1275 -790 
Q 1522 -856 1778 -856 
Q 2344 -856 2625 -561 
Q 2906 -266 2906 331 
L 2906 616 
Q 2728 306 2450 153 
Q 2172 0 1784 0 
Q 1141 0 747 490 
Q 353 981 353 1791 
Q 353 2603 747 3093 
Q 1141 3584 1784 3584 
Q 2172 3584 2450 3431 
Q 2728 3278 2906 2969 
L 2906 3500 
L 3481 3500 
L 3481 434 
z
" transform="scale(0.015625)"/>
       <path id="DejaVuSans-6f" d="M 1959 3097 
Q 1497 3097 1228 2736 
Q 959 2375 959 1747 
Q 959 1119 1226 758 
Q 1494 397 1959 397 
Q 2419 397 2687 759 
Q 2956 1122 2956 1747 
Q 2956 2369 2687 2733 
Q 2419 3097 1959 3097 
z
M 1959 3584 
Q 2709 3584 3137 3096 
Q 3566 2609 3566 1747 
Q 3566 888 3137 398 
Q 2709 -91 1959 -91 
Q 1206 -91 779 398 
Q 353 888 353 1747 
Q 353 2609 779 3096 
Q 1206 3584 1959 3584 
z
" transform="scale(0.015625)"/>
       <path id="DejaVuSans-75" d="M 544 1381 
L 544 3500 
L 1119 3500 
L 1119 1403 
Q 1119 906 1312 657 
Q 1506 409 1894 409 
Q 2359 409 2629 706 
Q 2900 1003 2900 1516 
L 2900 3500 
L 3475 3500 
L 3475 0 
L 2900 0 
L 2900 538 
Q 2691 219 2414 64 
Q 2138 -91 1772 -91 
Q 1169 -91 856 284 
Q 544 659 544 1381 
z
M 1991 3584 
L 1991 3584 
z
" transform="scale(0.015625)"/>
       <path id="DejaVuSans-68" d="M 3513 2113 
L 3513 0 
L 2938 0 
L 2938 2094 
Q 2938 2591 2744 2837 
Q 2550 3084 2163 3084 
Q 1697 3084 1428 2787 
Q 1159 2491 1159 1978 
L 1159 0 
L 581 0 
L 581 4863 
L 1159 4863 
L 1159 2956 
Q 1366 3272 1645 3428 
Q 1925 3584 2291 3584 
Q 2894 3584 3203 3211 
Q 3513 2838 3513 2113 
z
" transform="scale(0.015625)"/>
       <path id="DejaVuSans-6e" d="M 3513 2113 
L 3513 0 
L 2938 0 
L 2938 2094 
Q 2938 2591 2744 2837 
Q 2550 3084 2163 3084 
Q 1697 3084 1428 2787 
Q 1159 2491 1159 1978 
L 1159 0 
L 581 0 
L 581 3500 
L 1159 3500 
L 1159 2956 
Q 1366 3272 1645 3428 
Q 1925 3584 2291 3584 
Q 2894 3584 3203 3211 
Q 3513 2838 3513 2113 
z
" transform="scale(0.015625)"/>
       <path id="DejaVuSans-73" d="M 2834 3397 
L 2834 2853 
Q 2591 2978 2328 3040 
Q 2066 3103 1784 3103 
Q 1356 3103 1142 2972 
Q 928 2841 928 2578 
Q 928 2378 1081 2264 
Q 1234 2150 1697 2047 
L 1894 2003 
Q 2506 1872 2764 1633 
Q 3022 1394 3022 966 
Q 3022 478 2636 193 
Q 2250 -91 1575 -91 
Q 1294 -91 989 -36 
Q 684 19 347 128 
L 347 722 
Q 666 556 975 473 
Q 1284 391 1588 391 
Q 1994 391 2212 530 
Q 2431 669 2431 922 
Q 2431 1156 2273 1281 
Q 2116 1406 1581 1522 
L 1381 1569 
Q 847 1681 609 1914 
Q 372 2147 372 2553 
Q 372 3047 722 3315 
Q 1072 3584 1716 3584 
Q 2034 3584 2315 3537 
Q 2597 3491 2834 3397 
z
" transform="scale(0.015625)"/>
       <path id="DejaVuSans-Oblique-53" d="M 3859 4513 
L 3738 3897 
Q 3422 4066 3111 4152 
Q 2800 4238 2509 4238 
Q 1944 4238 1609 3991 
Q 1275 3744 1275 3334 
Q 1275 3109 1398 2989 
Q 1522 2869 2034 2731 
L 2413 2638 
Q 3053 2472 3303 2217 
Q 3553 1963 3553 1503 
Q 3553 797 2998 353 
Q 2444 -91 1538 -91 
Q 1166 -91 791 -17 
Q 416 56 38 206 
L 166 856 
Q 513 641 861 531 
Q 1209 422 1556 422 
Q 2147 422 2503 684 
Q 2859 947 2859 1369 
Q 2859 1650 2717 1795 
Q 2575 1941 2106 2059 
L 1728 2156 
Q 1081 2325 845 2545 
Q 609 2766 609 3163 
Q 609 3859 1145 4304 
Q 1681 4750 2541 4750 
Q 2875 4750 3203 4690 
Q 3531 4631 3859 4513 
z
" transform="scale(0.015625)"/>
       <path id="DejaVuSans-Oblique-61" d="M 3438 1997 
L 3047 0 
L 2472 0 
L 2578 531 
Q 2325 219 2001 64 
Q 1678 -91 1281 -91 
Q 834 -91 548 182 
Q 263 456 263 884 
Q 263 1497 752 1853 
Q 1241 2209 2100 2209 
L 2900 2209 
L 2931 2363 
Q 2938 2388 2941 2417 
Q 2944 2447 2944 2509 
Q 2944 2788 2717 2942 
Q 2491 3097 2081 3097 
Q 1800 3097 1504 3025 
Q 1209 2953 897 2809 
L 997 3341 
Q 1322 3463 1633 3523 
Q 1944 3584 2234 3584 
Q 2853 3584 3176 3315 
Q 3500 3047 3500 2534 
Q 3500 2431 3484 2292 
Q 3469 2153 3438 1997 
z
M 2816 1759 
L 2241 1759 
Q 1534 1759 1195 1570 
Q 856 1381 856 984 
Q 856 709 1029 553 
Q 1203 397 1509 397 
Q 1978 397 2328 733 
Q 2678 1069 2791 1631 
L 2816 1759 
z
" transform="scale(0.015625)"/>
       <path id="DejaVuSans-28" d="M 1984 4856 
Q 1566 4138 1362 3434 
Q 1159 2731 1159 2009 
Q 1159 1288 1364 580 
Q 1569 -128 1984 -844 
L 1484 -844 
Q 1016 -109 783 600 
Q 550 1309 550 2009 
Q 550 2706 781 3412 
Q 1013 4119 1484 4856 
L 1984 4856 
z
" transform="scale(0.015625)"/>
       <path id="DejaVuSans-3bc" d="M 544 -1331 
L 544 3500 
L 1119 3500 
L 1119 1325 
Q 1119 872 1334 640 
Q 1550 409 1972 409 
Q 2434 409 2667 671 
Q 2900 934 2900 1459 
L 2900 3500 
L 3475 3500 
L 3475 806 
Q 3475 619 3529 530 
Q 3584 441 3700 441 
Q 3728 441 3778 458 
Q 3828 475 3916 513 
L 3916 50 
Q 3788 -22 3673 -56 
Q 3559 -91 3450 -91 
Q 3234 -91 3106 31 
Q 2978 153 2931 403 
Q 2775 156 2548 32 
Q 2322 -91 2016 -91 
Q 1697 -91 1473 31 
Q 1250 153 1119 397 
L 1119 -1331 
L 544 -1331 
z
" transform="scale(0.015625)"/>
       <path id="DejaVuSans-6d" d="M 3328 2828 
Q 3544 3216 3844 3400 
Q 4144 3584 4550 3584 
Q 5097 3584 5394 3201 
Q 5691 2819 5691 2113 
L 5691 0 
L 5113 0 
L 5113 2094 
Q 5113 2597 4934 2840 
Q 4756 3084 4391 3084 
Q 3944 3084 3684 2787 
Q 3425 2491 3425 1978 
L 3425 0 
L 2847 0 
L 2847 2094 
Q 2847 2600 2669 2842 
Q 2491 3084 2119 3084 
Q 1678 3084 1418 2786 
Q 1159 2488 1159 1978 
L 1159 0 
L 581 0 
L 581 3500 
L 1159 3500 
L 1159 2956 
Q 1356 3278 1631 3431 
Q 1906 3584 2284 3584 
Q 2666 3584 2933 3390 
Q 3200 3197 3328 2828 
z
" transform="scale(0.015625)"/>
       <path id="DejaVuSans-29" d="M 513 4856 
L 1013 4856 
Q 1481 4119 1714 3412 
Q 1947 2706 1947 2009 
Q 1947 1309 1714 600 
Q 1481 -109 1013 -844 
L 513 -844 
Q 928 -128 1133 580 
Q 1338 1288 1338 2009 
Q 1338 2731 1133 3434 
Q 928 4138 513 4856 
z
" transform="scale(0.015625)"/>
      </defs>
      <use xlink:href="#DejaVuSans-41" transform="translate(0 0.015625)"/>
      <use xlink:href="#DejaVuSans-72" transform="translate(68.408203 0.015625)"/>
      <use xlink:href="#DejaVuSans-65" transform="translate(109.521484 0.015625)"/>
      <use xlink:href="#DejaVuSans-61" transform="translate(171.044922 0.015625)"/>
      <use xlink:href="#DejaVuSans-6c" transform="translate(232.324219 0.015625)"/>
      <use xlink:href="#DejaVuSans-20" transform="translate(260.107422 0.015625)"/>
      <use xlink:href="#DejaVuSans-61" transform="translate(291.894531 0.015625)"/>
      <use xlink:href="#DejaVuSans-76" transform="translate(353.173828 0.015625)"/>
      <use xlink:href="#DejaVuSans-65" transform="translate(412.353516 0.015625)"/>
      <use xlink:href="#DejaVuSans-72" transform="translate(473.876953 0.015625)"/>
      <use xlink:href="#DejaVuSans-61" transform="translate(514.990234 0.015625)"/>
      <use xlink:href="#DejaVuSans-67" transform="translate(576.269531 0.015625)"/>
      <use xlink:href="#DejaVuSans-65" transform="translate(639.746094 0.015625)"/>
      <use xlink:href="#DejaVuSans-20" transform="translate(701.269531 0.015625)"/>
      <use xlink:href="#DejaVuSans-72" transform="translate(733.056641 0.015625)"/>
      <use xlink:href="#DejaVuSans-6f" transform="translate(774.169922 0.015625)"/>
      <use xlink:href="#DejaVuSans-75" transform="translate(835.351562 0.015625)"/>
      <use xlink:href="#DejaVuSans-67" transform="translate(898.730469 0.015625)"/>
      <use xlink:href="#DejaVuSans-68" transform="translate(962.207031 0.015625)"/>
      <use xlink:href="#DejaVuSans-6e" transform="translate(1025.585938 0.015625)"/>
      <use xlink:href="#DejaVuSans-65" transform="translate(1088.964844 0.015625)"/>
      <use xlink:href="#DejaVuSans-73" transform="translate(1150.488281 0.015625)"/>
      <use xlink:href="#DejaVuSans-73" transform="translate(1202.587891 0.015625)"/>
      <use xlink:href="#DejaVuSans-20" transform="translate(1254.6875 0.015625)"/>
      <use xlink:href="#DejaVuSans-Oblique-53" transform="translate(1286.474609 0.015625)"/>
      <use xlink:href="#DejaVuSans-Oblique-61" transform="translate(1349.951172 0.015625)"/>
      <use xlink:href="#DejaVuSans-20" transform="translate(1411.230469 0.015625)"/>
      <use xlink:href="#DejaVuSans-28" transform="translate(1443.017578 0.015625)"/>
      <use xlink:href="#DejaVuSans-3bc" transform="translate(1482.03125 0.015625)"/>
      <use xlink:href="#DejaVuSans-6d" transform="translate(1545.654297 0.015625)"/>
      <use xlink:href="#DejaVuSans-29" transform="translate(1643.066406 0.015625)"/>
     </g>
    </g>
   </g>
   <g id="line2d_43">
    <path d="M 43.74 194.089401 
L 43.74 196.663007 
" clip-path="url(#pf90a773082)" style="fill: none; stroke: #3f3f3f; stroke-linecap: square"/>
   </g>
   <g id="line2d_44">
    <path d="M 43.74 185.410192 
L 43.74 181.907517 
" clip-path="url(#pf90a773082)" style="fill: none; stroke: #3f3f3f; stroke-linecap: square"/>
   </g>
   <g id="line2d_45">
    <path d="M 38.2716 196.663007 
L 49.2084 196.663007 
" clip-path="url(#pf90a773082)" style="fill: none; stroke: #3f3f3f; stroke-linecap: square"/>
   </g>
   <g id="line2d_46">
    <path d="M 38.2716 181.907517 
L 49.2084 181.907517 
" clip-path="url(#pf90a773082)" style="fill: none; stroke: #3f3f3f; stroke-linecap: square"/>
   </g>
   <g id="line2d_47">
    <path d="M 66.06 171.531847 
L 66.06 171.712653 
" clip-path="url(#pf90a773082)" style="fill: none; stroke: #3f3f3f; stroke-linecap: square"/>
   </g>
   <g id="line2d_48">
    <path d="M 66.06 159.255498 
L 66.06 156.066723 
" clip-path="url(#pf90a773082)" style="fill: none; stroke: #3f3f3f; stroke-linecap: square"/>
   </g>
   <g id="line2d_49">
    <path d="M 60.5916 171.712653 
L 71.5284 171.712653 
" clip-path="url(#pf90a773082)" style="fill: none; stroke: #3f3f3f; stroke-linecap: square"/>
   </g>
   <g id="line2d_50">
    <path d="M 60.5916 156.066723 
L 71.5284 156.066723 
" clip-path="url(#pf90a773082)" style="fill: none; stroke: #3f3f3f; stroke-linecap: square"/>
   </g>
   <g id="line2d_51">
    <path d="M 99.54 195.358958 
L 99.54 196.384412 
" clip-path="url(#pf90a773082)" style="fill: none; stroke: #3f3f3f; stroke-linecap: square"/>
   </g>
   <g id="line2d_52">
    <path d="M 99.54 193.028642 
L 99.54 192.019363 
" clip-path="url(#pf90a773082)" style="fill: none; stroke: #3f3f3f; stroke-linecap: square"/>
   </g>
   <g id="line2d_53">
    <path d="M 94.0716 196.384412 
L 105.0084 196.384412 
" clip-path="url(#pf90a773082)" style="fill: none; stroke: #3f3f3f; stroke-linecap: square"/>
   </g>
   <g id="line2d_54">
    <path d="M 94.0716 192.019363 
L 105.0084 192.019363 
" clip-path="url(#pf90a773082)" style="fill: none; stroke: #3f3f3f; stroke-linecap: square"/>
   </g>
   <g id="line2d_55">
    <path d="M 121.86 182.253028 
L 121.86 183.522068 
" clip-path="url(#pf90a773082)" style="fill: none; stroke: #3f3f3f; stroke-linecap: square"/>
   </g>
   <g id="line2d_56">
    <path d="M 121.86 168.546996 
L 121.86 167.556772 
" clip-path="url(#pf90a773082)" style="fill: none; stroke: #3f3f3f; stroke-linecap: square"/>
   </g>
   <g id="line2d_57">
    <path d="M 116.3916 183.522068 
L 127.3284 183.522068 
" clip-path="url(#pf90a773082)" style="fill: none; stroke: #3f3f3f; stroke-linecap: square"/>
   </g>
   <g id="line2d_58">
    <path d="M 116.3916 167.556772 
L 127.3284 167.556772 
" clip-path="url(#pf90a773082)" style="fill: none; stroke: #3f3f3f; stroke-linecap: square"/>
   </g>
   <g id="line2d_59">
    <path d="M 155.34 198.165662 
L 155.34 200.036281 
" clip-path="url(#pf90a773082)" style="fill: none; stroke: #3f3f3f; stroke-linecap: square"/>
   </g>
   <g id="line2d_60">
    <path d="M 155.34 194.368365 
L 155.34 194.060817 
" clip-path="url(#pf90a773082)" style="fill: none; stroke: #3f3f3f; stroke-linecap: square"/>
   </g>
   <g id="line2d_61">
    <path d="M 149.8716 200.036281 
L 160.8084 200.036281 
" clip-path="url(#pf90a773082)" style="fill: none; stroke: #3f3f3f; stroke-linecap: square"/>
   </g>
   <g id="line2d_62">
    <path d="M 149.8716 194.060817 
L 160.8084 194.060817 
" clip-path="url(#pf90a773082)" style="fill: none; stroke: #3f3f3f; stroke-linecap: square"/>
   </g>
   <g id="line2d_63">
    <path d="M 177.66 167.008741 
L 177.66 172.162305 
" clip-path="url(#pf90a773082)" style="fill: none; stroke: #3f3f3f; stroke-linecap: square"/>
   </g>
   <g id="line2d_64">
    <path d="M 177.66 161.946244 
L 177.66 161.63035 
" clip-path="url(#pf90a773082)" style="fill: none; stroke: #3f3f3f; stroke-linecap: square"/>
   </g>
   <g id="line2d_65">
    <path d="M 172.1916 172.162305 
L 183.1284 172.162305 
" clip-path="url(#pf90a773082)" style="fill: none; stroke: #3f3f3f; stroke-linecap: square"/>
   </g>
   <g id="line2d_66">
    <path d="M 172.1916 161.63035 
L 183.1284 161.63035 
" clip-path="url(#pf90a773082)" style="fill: none; stroke: #3f3f3f; stroke-linecap: square"/>
   </g>
   <g id="line2d_67">
    <path d="M 32.8032 187.308655 
L 54.6768 187.308655 
" clip-path="url(#pf90a773082)" style="fill: none; stroke: #3f3f3f; stroke-linecap: square"/>
   </g>
   <g id="line2d_68">
    <path d="M 55.1232 166.87225 
L 76.9968 166.87225 
" clip-path="url(#pf90a773082)" style="fill: none; stroke: #3f3f3f; stroke-linecap: square"/>
   </g>
   <g id="line2d_69">
    <path d="M 88.6032 194.507219 
L 110.4768 194.507219 
" clip-path="url(#pf90a773082)" style="fill: none; stroke: #3f3f3f; stroke-linecap: square"/>
   </g>
   <g id="line2d_70">
    <path d="M 110.9232 177.373331 
L 132.7968 177.373331 
" clip-path="url(#pf90a773082)" style="fill: none; stroke: #3f3f3f; stroke-linecap: square"/>
   </g>
   <g id="line2d_71">
    <path d="M 144.4032 195.075193 
L 166.2768 195.075193 
" clip-path="url(#pf90a773082)" style="fill: none; stroke: #3f3f3f; stroke-linecap: square"/>
   </g>
   <g id="line2d_72">
    <path d="M 166.7232 165.293151 
L 188.5968 165.293151 
" clip-path="url(#pf90a773082)" style="fill: none; stroke: #3f3f3f; stroke-linecap: square"/>
   </g>
   <g id="patch_22">
    <path d="M 27 208.643478 
L 27 149.556522 
" style="fill: none; stroke: #000000; stroke-width: 0.8; stroke-linejoin: miter; stroke-linecap: square"/>
   </g>
   <g id="patch_23">
    <path d="M 27 208.643478 
L 194.4 208.643478 
" style="fill: none; stroke: #000000; stroke-width: 0.8; stroke-linejoin: miter; stroke-linecap: square"/>
   </g>
  </g>
  <g id="axes_3">
   <g id="patch_24">
    <path d="M 27 315 
L 194.4 315 
L 194.4 255.913043 
L 27 255.913043 
z
" style="fill: #ffffff"/>
   </g>
   <g id="patch_25">
    <path d="M 32.8032 296.57521 
L 54.6768 296.57521 
L 54.6768 290.513627 
L 32.8032 290.513627 
L 32.8032 296.57521 
z
" clip-path="url(#p364e6cc682)" style="fill: #696969; stroke: #3f3f3f; stroke-linejoin: miter"/>
   </g>
   <g id="patch_26">
    <path d="M 55.1232 284.514085 
L 76.9968 284.514085 
L 76.9968 269.893756 
L 55.1232 269.893756 
L 55.1232 284.514085 
z
" clip-path="url(#p364e6cc682)" style="fill: #93ba45; stroke: #3f3f3f; stroke-linejoin: miter"/>
   </g>
   <g id="patch_27">
    <path d="M 88.6032 283.651415 
L 110.4768 283.651415 
L 110.4768 277.933275 
L 88.6032 277.933275 
L 88.6032 283.651415 
z
" clip-path="url(#p364e6cc682)" style="fill: #696969; stroke: #3f3f3f; stroke-linejoin: miter"/>
   </g>
   <g id="patch_28">
    <path d="M 110.9232 279.089164 
L 132.7968 279.089164 
L 132.7968 263.925235 
L 110.9232 263.925235 
L 110.9232 279.089164 
z
" clip-path="url(#p364e6cc682)" style="fill: #93ba45; stroke: #3f3f3f; stroke-linejoin: miter"/>
   </g>
   <g id="patch_29">
    <path d="M 144.4032 292.081647 
L 166.2768 292.081647 
L 166.2768 284.952805 
L 144.4032 284.952805 
L 144.4032 292.081647 
z
" clip-path="url(#p364e6cc682)" style="fill: #696969; stroke: #3f3f3f; stroke-linejoin: miter"/>
   </g>
   <g id="patch_30">
    <path d="M 166.7232 280.567076 
L 188.5968 280.567076 
L 188.5968 269.476454 
L 166.7232 269.476454 
L 166.7232 280.567076 
z
" clip-path="url(#p364e6cc682)" style="fill: #93ba45; stroke: #3f3f3f; stroke-linejoin: miter"/>
   </g>
   <g id="patch_31">
    <path d="M 54.9 315 
L 54.9 315 
L 54.9 315 
L 54.9 315 
z
" clip-path="url(#p364e6cc682)" style="fill: #696969; stroke: #3f3f3f; stroke-width: 0.5; stroke-linejoin: miter"/>
   </g>
   <g id="patch_32">
    <path d="M 54.9 315 
L 54.9 315 
L 54.9 315 
L 54.9 315 
z
" clip-path="url(#p364e6cc682)" style="fill: #93ba45; stroke: #3f3f3f; stroke-width: 0.5; stroke-linejoin: miter"/>
   </g>
   <g id="matplotlib.axis_5">
    <g id="xtick_7">
     <g id="line2d_73">
      <g>
       <use xlink:href="#mf55ad39bd8" x="54.9" y="315" style="stroke: #000000; stroke-width: 0.8"/>
      </g>
     </g>
     <g id="text_14">
      <!-- PTFE -->
      <g transform="translate(42.796094 329.598438) scale(0.1 -0.1)">
       <use xlink:href="#DejaVuSans-50"/>
       <use xlink:href="#DejaVuSans-54" x="60.302734"/>
       <use xlink:href="#DejaVuSans-46" x="121.386719"/>
       <use xlink:href="#DejaVuSans-45" x="178.90625"/>
      </g>
     </g>
    </g>
    <g id="xtick_8">
     <g id="line2d_74">
      <g>
       <use xlink:href="#mf55ad39bd8" x="110.7" y="315" style="stroke: #000000; stroke-width: 0.8"/>
      </g>
     </g>
     <g id="text_15">
      <!-- POM -->
      <g transform="translate(99.435156 329.598438) scale(0.1 -0.1)">
       <use xlink:href="#DejaVuSans-50"/>
       <use xlink:href="#DejaVuSans-4f" x="60.302734"/>
       <use xlink:href="#DejaVuSans-4d" x="139.013672"/>
      </g>
     </g>
    </g>
    <g id="xtick_9">
     <g id="line2d_75">
      <g>
       <use xlink:href="#mf55ad39bd8" x="166.5" y="315" style="stroke: #000000; stroke-width: 0.8"/>
      </g>
     </g>
     <g id="text_16">
      <!-- PS -->
      <g transform="translate(160.310937 329.598438) scale(0.1 -0.1)">
       <use xlink:href="#DejaVuSans-50"/>
       <use xlink:href="#DejaVuSans-53" x="60.302734"/>
      </g>
     </g>
    </g>
   </g>
   <g id="matplotlib.axis_6">
    <g id="ytick_7">
     <g id="line2d_76">
      <g>
       <use xlink:href="#m500614d672" x="27" y="315" style="stroke: #000000; stroke-width: 0.8"/>
      </g>
     </g>
     <g id="text_17">
      <!-- 0 -->
      <g transform="translate(13.6375 318.799219) scale(0.1 -0.1)">
       <use xlink:href="#DejaVuSans-30"/>
      </g>
     </g>
    </g>
    <g id="ytick_8">
     <g id="line2d_77">
      <g>
       <use xlink:href="#m500614d672" x="27" y="285.456522" style="stroke: #000000; stroke-width: 0.8"/>
      </g>
     </g>
     <g id="text_18">
      <!-- 100 -->
      <g transform="translate(0.9125 289.25574) scale(0.1 -0.1)">
       <use xlink:href="#DejaVuSans-31"/>
       <use xlink:href="#DejaVuSans-30" x="63.623047"/>
       <use xlink:href="#DejaVuSans-30" x="127.246094"/>
      </g>
     </g>
    </g>
    <g id="ytick_9">
     <g id="line2d_78">
      <g>
       <use xlink:href="#m500614d672" x="27" y="255.913043" style="stroke: #000000; stroke-width: 0.8"/>
      </g>
     </g>
     <g id="text_19">
      <!-- 200 -->
      <g transform="translate(0.9125 259.712262) scale(0.1 -0.1)">
       <use xlink:href="#DejaVuSans-32"/>
       <use xlink:href="#DejaVuSans-30" x="63.623047"/>
       <use xlink:href="#DejaVuSans-30" x="127.246094"/>
      </g>
     </g>
    </g>
   </g>
   <g id="line2d_79">
    <path d="M 43.74 296.57521 
L 43.74 305.631763 
" clip-path="url(#p364e6cc682)" style="fill: none; stroke: #3f3f3f; stroke-linecap: square"/>
   </g>
   <g id="line2d_80">
    <path d="M 43.74 290.513627 
L 43.74 285.775591 
" clip-path="url(#p364e6cc682)" style="fill: none; stroke: #3f3f3f; stroke-linecap: square"/>
   </g>
   <g id="line2d_81">
    <path d="M 38.2716 305.631763 
L 49.2084 305.631763 
" clip-path="url(#p364e6cc682)" style="fill: none; stroke: #3f3f3f; stroke-linecap: square"/>
   </g>
   <g id="line2d_82">
    <path d="M 38.2716 285.775591 
L 49.2084 285.775591 
" clip-path="url(#p364e6cc682)" style="fill: none; stroke: #3f3f3f; stroke-linecap: square"/>
   </g>
   <g id="line2d_83">
    <path d="M 66.06 284.514085 
L 66.06 292.886707 
" clip-path="url(#p364e6cc682)" style="fill: none; stroke: #3f3f3f; stroke-linecap: square"/>
   </g>
   <g id="line2d_84">
    <path d="M 66.06 269.893756 
L 66.06 268.740822 
" clip-path="url(#p364e6cc682)" style="fill: none; stroke: #3f3f3f; stroke-linecap: square"/>
   </g>
   <g id="line2d_85">
    <path d="M 60.5916 292.886707 
L 71.5284 292.886707 
" clip-path="url(#p364e6cc682)" style="fill: none; stroke: #3f3f3f; stroke-linecap: square"/>
   </g>
   <g id="line2d_86">
    <path d="M 60.5916 268.740822 
L 71.5284 268.740822 
" clip-path="url(#p364e6cc682)" style="fill: none; stroke: #3f3f3f; stroke-linecap: square"/>
   </g>
   <g id="line2d_87">
    <path d="M 99.54 283.651415 
L 99.54 285.506746 
" clip-path="url(#p364e6cc682)" style="fill: none; stroke: #3f3f3f; stroke-linecap: square"/>
   </g>
   <g id="line2d_88">
    <path d="M 99.54 277.933275 
L 99.54 277.727948 
" clip-path="url(#p364e6cc682)" style="fill: none; stroke: #3f3f3f; stroke-linecap: square"/>
   </g>
   <g id="line2d_89">
    <path d="M 94.0716 285.506746 
L 105.0084 285.506746 
" clip-path="url(#p364e6cc682)" style="fill: none; stroke: #3f3f3f; stroke-linecap: square"/>
   </g>
   <g id="line2d_90">
    <path d="M 94.0716 277.727948 
L 105.0084 277.727948 
" clip-path="url(#p364e6cc682)" style="fill: none; stroke: #3f3f3f; stroke-linecap: square"/>
   </g>
   <g id="line2d_91">
    <path d="M 121.86 279.089164 
L 121.86 281.81972 
" clip-path="url(#p364e6cc682)" style="fill: none; stroke: #3f3f3f; stroke-linecap: square"/>
   </g>
   <g id="line2d_92">
    <path d="M 121.86 263.925235 
L 121.86 256.034172 
" clip-path="url(#p364e6cc682)" style="fill: none; stroke: #3f3f3f; stroke-linecap: square"/>
   </g>
   <g id="line2d_93">
    <path d="M 116.3916 281.81972 
L 127.3284 281.81972 
" clip-path="url(#p364e6cc682)" style="fill: none; stroke: #3f3f3f; stroke-linecap: square"/>
   </g>
   <g id="line2d_94">
    <path d="M 116.3916 256.034172 
L 127.3284 256.034172 
" clip-path="url(#p364e6cc682)" style="fill: none; stroke: #3f3f3f; stroke-linecap: square"/>
   </g>
   <g id="line2d_95">
    <path d="M 155.34 292.081647 
L 155.34 296.621002 
" clip-path="url(#p364e6cc682)" style="fill: none; stroke: #3f3f3f; stroke-linecap: square"/>
   </g>
   <g id="line2d_96">
    <path d="M 155.34 284.952805 
L 155.34 283.887763 
" clip-path="url(#p364e6cc682)" style="fill: none; stroke: #3f3f3f; stroke-linecap: square"/>
   </g>
   <g id="line2d_97">
    <path d="M 149.8716 296.621002 
L 160.8084 296.621002 
" clip-path="url(#p364e6cc682)" style="fill: none; stroke: #3f3f3f; stroke-linecap: square"/>
   </g>
   <g id="line2d_98">
    <path d="M 149.8716 283.887763 
L 160.8084 283.887763 
" clip-path="url(#p364e6cc682)" style="fill: none; stroke: #3f3f3f; stroke-linecap: square"/>
   </g>
   <g id="line2d_99">
    <path d="M 177.66 280.567076 
L 177.66 283.04282 
" clip-path="url(#p364e6cc682)" style="fill: none; stroke: #3f3f3f; stroke-linecap: square"/>
   </g>
   <g id="line2d_100">
    <path d="M 177.66 269.476454 
L 177.66 264.929713 
" clip-path="url(#p364e6cc682)" style="fill: none; stroke: #3f3f3f; stroke-linecap: square"/>
   </g>
   <g id="line2d_101">
    <path d="M 172.1916 283.04282 
L 183.1284 283.04282 
" clip-path="url(#p364e6cc682)" style="fill: none; stroke: #3f3f3f; stroke-linecap: square"/>
   </g>
   <g id="line2d_102">
    <path d="M 172.1916 264.929713 
L 183.1284 264.929713 
" clip-path="url(#p364e6cc682)" style="fill: none; stroke: #3f3f3f; stroke-linecap: square"/>
   </g>
   <g id="line2d_103">
    <path d="M 32.8032 294.391947 
L 54.6768 294.391947 
" clip-path="url(#p364e6cc682)" style="fill: none; stroke: #3f3f3f; stroke-linecap: square"/>
   </g>
   <g id="line2d_104">
    <path d="M 55.1232 281.499173 
L 76.9968 281.499173 
" clip-path="url(#p364e6cc682)" style="fill: none; stroke: #3f3f3f; stroke-linecap: square"/>
   </g>
   <g id="line2d_105">
    <path d="M 88.6032 278.605389 
L 110.4768 278.605389 
" clip-path="url(#p364e6cc682)" style="fill: none; stroke: #3f3f3f; stroke-linecap: square"/>
   </g>
   <g id="line2d_106">
    <path d="M 110.9232 274.686447 
L 132.7968 274.686447 
" clip-path="url(#p364e6cc682)" style="fill: none; stroke: #3f3f3f; stroke-linecap: square"/>
   </g>
   <g id="line2d_107">
    <path d="M 144.4032 288.952992 
L 166.2768 288.952992 
" clip-path="url(#p364e6cc682)" style="fill: none; stroke: #3f3f3f; stroke-linecap: square"/>
   </g>
   <g id="line2d_108">
    <path d="M 166.7232 277.23014 
L 188.5968 277.23014 
" clip-path="url(#p364e6cc682)" style="fill: none; stroke: #3f3f3f; stroke-linecap: square"/>
   </g>
   <g id="patch_33">
    <path d="M 27 315 
L 27 255.913043 
" style="fill: none; stroke: #000000; stroke-width: 0.8; stroke-linejoin: miter; stroke-linecap: square"/>
   </g>
   <g id="patch_34">
    <path d="M 27 315 
L 194.4 315 
" style="fill: none; stroke: #000000; stroke-width: 0.8; stroke-linejoin: miter; stroke-linecap: square"/>
   </g>
  </g>
  <g id="text_20">
   <!-- Rectangular plastic -->
   <g transform="translate(50.353125 28.51125) scale(0.12 -0.12)">
    <defs>
     <path id="DejaVuSans-52" d="M 2841 2188 
Q 3044 2119 3236 1894 
Q 3428 1669 3622 1275 
L 4263 0 
L 3584 0 
L 2988 1197 
Q 2756 1666 2539 1819 
Q 2322 1972 1947 1972 
L 1259 1972 
L 1259 0 
L 628 0 
L 628 4666 
L 2053 4666 
Q 2853 4666 3247 4331 
Q 3641 3997 3641 3322 
Q 3641 2881 3436 2590 
Q 3231 2300 2841 2188 
z
M 1259 4147 
L 1259 2491 
L 2053 2491 
Q 2509 2491 2742 2702 
Q 2975 2913 2975 3322 
Q 2975 3731 2742 3939 
Q 2509 4147 2053 4147 
L 1259 4147 
z
" transform="scale(0.015625)"/>
     <path id="DejaVuSans-63" d="M 3122 3366 
L 3122 2828 
Q 2878 2963 2633 3030 
Q 2388 3097 2138 3097 
Q 1578 3097 1268 2742 
Q 959 2388 959 1747 
Q 959 1106 1268 751 
Q 1578 397 2138 397 
Q 2388 397 2633 464 
Q 2878 531 3122 666 
L 3122 134 
Q 2881 22 2623 -34 
Q 2366 -91 2075 -91 
Q 1284 -91 818 406 
Q 353 903 353 1747 
Q 353 2603 823 3093 
Q 1294 3584 2113 3584 
Q 2378 3584 2631 3529 
Q 2884 3475 3122 3366 
z
" transform="scale(0.015625)"/>
     <path id="DejaVuSans-74" d="M 1172 4494 
L 1172 3500 
L 2356 3500 
L 2356 3053 
L 1172 3053 
L 1172 1153 
Q 1172 725 1289 603 
Q 1406 481 1766 481 
L 2356 481 
L 2356 0 
L 1766 0 
Q 1100 0 847 248 
Q 594 497 594 1153 
L 594 3053 
L 172 3053 
L 172 3500 
L 594 3500 
L 594 4494 
L 1172 4494 
z
" transform="scale(0.015625)"/>
     <path id="DejaVuSans-70" d="M 1159 525 
L 1159 -1331 
L 581 -1331 
L 581 3500 
L 1159 3500 
L 1159 2969 
Q 1341 3281 1617 3432 
Q 1894 3584 2278 3584 
Q 2916 3584 3314 3078 
Q 3713 2572 3713 1747 
Q 3713 922 3314 415 
Q 2916 -91 2278 -91 
Q 1894 -91 1617 61 
Q 1341 213 1159 525 
z
M 3116 1747 
Q 3116 2381 2855 2742 
Q 2594 3103 2138 3103 
Q 1681 3103 1420 2742 
Q 1159 2381 1159 1747 
Q 1159 1113 1420 752 
Q 1681 391 2138 391 
Q 2594 391 2855 752 
Q 3116 1113 3116 1747 
z
" transform="scale(0.015625)"/>
     <path id="DejaVuSans-69" d="M 603 3500 
L 1178 3500 
L 1178 0 
L 603 0 
L 603 3500 
z
M 603 4863 
L 1178 4863 
L 1178 4134 
L 603 4134 
L 603 4863 
z
" transform="scale(0.015625)"/>
    </defs>
    <use xlink:href="#DejaVuSans-52"/>
    <use xlink:href="#DejaVuSans-65" x="64.982422"/>
    <use xlink:href="#DejaVuSans-63" x="126.505859"/>
    <use xlink:href="#DejaVuSans-74" x="181.486328"/>
    <use xlink:href="#DejaVuSans-61" x="220.695312"/>
    <use xlink:href="#DejaVuSans-6e" x="281.974609"/>
    <use xlink:href="#DejaVuSans-67" x="345.353516"/>
    <use xlink:href="#DejaVuSans-75" x="408.830078"/>
    <use xlink:href="#DejaVuSans-6c" x="472.208984"/>
    <use xlink:href="#DejaVuSans-61" x="499.992188"/>
    <use xlink:href="#DejaVuSans-72" x="561.271484"/>
    <use xlink:href="#DejaVuSans-20" x="602.384766"/>
    <use xlink:href="#DejaVuSans-70" x="634.171875"/>
    <use xlink:href="#DejaVuSans-6c" x="697.648438"/>
    <use xlink:href="#DejaVuSans-61" x="725.431641"/>
    <use xlink:href="#DejaVuSans-73" x="786.710938"/>
    <use xlink:href="#DejaVuSans-74" x="838.810547"/>
    <use xlink:href="#DejaVuSans-69" x="878.019531"/>
    <use xlink:href="#DejaVuSans-63" x="905.802734"/>
   </g>
  </g>
  <g id="text_21">
   <!-- Square plastic -->
   <g transform="translate(65.375625 136.51125) scale(0.12 -0.12)">
    <defs>
     <path id="DejaVuSans-71" d="M 947 1747 
Q 947 1113 1208 752 
Q 1469 391 1925 391 
Q 2381 391 2643 752 
Q 2906 1113 2906 1747 
Q 2906 2381 2643 2742 
Q 2381 3103 1925 3103 
Q 1469 3103 1208 2742 
Q 947 2381 947 1747 
z
M 2906 525 
Q 2725 213 2448 61 
Q 2172 -91 1784 -91 
Q 1150 -91 751 415 
Q 353 922 353 1747 
Q 353 2572 751 3078 
Q 1150 3584 1784 3584 
Q 2172 3584 2448 3432 
Q 2725 3281 2906 2969 
L 2906 3500 
L 3481 3500 
L 3481 -1331 
L 2906 -1331 
L 2906 525 
z
" transform="scale(0.015625)"/>
    </defs>
    <use xlink:href="#DejaVuSans-53"/>
    <use xlink:href="#DejaVuSans-71" x="63.476562"/>
    <use xlink:href="#DejaVuSans-75" x="126.953125"/>
    <use xlink:href="#DejaVuSans-61" x="190.332031"/>
    <use xlink:href="#DejaVuSans-72" x="251.611328"/>
    <use xlink:href="#DejaVuSans-65" x="290.474609"/>
    <use xlink:href="#DejaVuSans-20" x="351.998047"/>
    <use xlink:href="#DejaVuSans-70" x="383.785156"/>
    <use xlink:href="#DejaVuSans-6c" x="447.261719"/>
    <use xlink:href="#DejaVuSans-61" x="475.044922"/>
    <use xlink:href="#DejaVuSans-73" x="536.324219"/>
    <use xlink:href="#DejaVuSans-74" x="588.423828"/>
    <use xlink:href="#DejaVuSans-69" x="627.632812"/>
    <use xlink:href="#DejaVuSans-63" x="655.416016"/>
   </g>
  </g>
  <g id="text_22">
   <!-- Spherical plastic -->
   <g transform="translate(58.607813 244.51125) scale(0.12 -0.12)">
    <use xlink:href="#DejaVuSans-53"/>
    <use xlink:href="#DejaVuSans-70" x="63.476562"/>
    <use xlink:href="#DejaVuSans-68" x="126.953125"/>
    <use xlink:href="#DejaVuSans-65" x="190.332031"/>
    <use xlink:href="#DejaVuSans-72" x="251.855469"/>
    <use xlink:href="#DejaVuSans-69" x="292.96875"/>
    <use xlink:href="#DejaVuSans-63" x="320.751953"/>
    <use xlink:href="#DejaVuSans-61" x="375.732422"/>
    <use xlink:href="#DejaVuSans-6c" x="437.011719"/>
    <use xlink:href="#DejaVuSans-20" x="464.794922"/>
    <use xlink:href="#DejaVuSans-70" x="496.582031"/>
    <use xlink:href="#DejaVuSans-6c" x="560.058594"/>
    <use xlink:href="#DejaVuSans-61" x="587.841797"/>
    <use xlink:href="#DejaVuSans-73" x="649.121094"/>
    <use xlink:href="#DejaVuSans-74" x="701.220703"/>
    <use xlink:href="#DejaVuSans-69" x="740.429688"/>
    <use xlink:href="#DejaVuSans-63" x="768.212891"/>
   </g>
  </g>
 </g>
 <defs>
  <clipPath id="p01de8e441e">
   <rect x="27" y="43.2" width="167.4" height="59.086957"/>
  </clipPath>
  <clipPath id="pf90a773082">
   <rect x="27" y="149.556522" width="167.4" height="59.086957"/>
  </clipPath>
  <clipPath id="p364e6cc682">
   <rect x="27" y="255.913043" width="167.4" height="59.086957"/>
  </clipPath>
 </defs>
</svg>
