<?xml version="1.0" encoding="utf-8" standalone="no"?>
<!DOCTYPE svg PUBLIC "-//W3C//DTD SVG 1.1//EN"
  "http://www.w3.org/Graphics/SVG/1.1/DTD/svg11.dtd">
<svg xmlns:xlink="http://www.w3.org/1999/xlink" width="288pt" height="216pt" viewBox="0 0 288 216" xmlns="http://www.w3.org/2000/svg" version="1.1">
 <metadata>
  <rdf:RDF xmlns:dc="http://purl.org/dc/elements/1.1/" xmlns:cc="http://creativecommons.org/ns#" xmlns:rdf="http://www.w3.org/1999/02/22-rdf-syntax-ns#">
   <cc:Work>
    <dc:type rdf:resource="http://purl.org/dc/dcmitype/StillImage"/>
    <dc:date>2023-12-11T13:12:19.698350</dc:date>
    <dc:format>image/svg+xml</dc:format>
    <dc:creator>
     <cc:Agent>
      <dc:title>Matplotlib v3.7.2, https://matplotlib.org/</dc:title>
     </cc:Agent>
    </dc:creator>
   </cc:Work>
  </rdf:RDF>
 </metadata>
 <defs>
  <style type="text/css">*{stroke-linejoin: round; stroke-linecap: butt}</style>
 </defs>
 <g id="figure_1">
  <g id="patch_1">
   <path d="M 0 216 
L 288 216 
L 288 0 
L 0 0 
z
" style="fill: #ffffff"/>
  </g>
  <g id="axes_1">
   <g id="patch_2">
    <path d="M 36 189 
L 259.2 189 
L 259.2 25.92 
L 36 25.92 
z
" style="fill: #ffffff"/>
   </g>
   <g id="PathCollection_1">
    <path d="M 130.613658 134.821657 
L 136.613658 134.821657 
L 136.613658 128.821657 
L 130.613658 128.821657 
L 130.613658 134.821657 
z
" clip-path="url(#p0ec853e70e)" style="fill: none; stroke: #4682b4"/>
   </g>
   <g id="PathCollection_2">
    <path d="M 142.493138 152.181026 
L 148.493138 152.181026 
L 148.493138 146.181026 
L 142.493138 146.181026 
L 142.493138 152.181026 
z
" clip-path="url(#p0ec853e70e)" style="fill: none; stroke: #ffa500"/>
   </g>
   <g id="PathCollection_3">
    <path d="M 117.305769 135.205973 
C 118.101378 135.205973 118.864509 134.889874 119.427089 134.327293 
C 119.98967 133.764712 120.305769 133.001582 120.305769 132.205973 
C 120.305769 131.410363 119.98967 130.647233 119.427089 130.084652 
C 118.864509 129.522071 118.101378 129.205973 117.305769 129.205973 
C 116.51016 129.205973 115.74703 129.522071 115.184449 130.084652 
C 114.621868 130.647233 114.305769 131.410363 114.305769 132.205973 
C 114.305769 133.001582 114.621868 133.764712 115.184449 134.327293 
C 115.74703 134.889874 116.51016 135.205973 117.305769 135.205973 
L 117.305769 135.205973 
z
" clip-path="url(#p0ec853e70e)" style="fill: none; stroke: #4682b4"/>
   </g>
   <g id="PathCollection_4">
    <path d="M 125.841353 147.678939 
C 126.636963 147.678939 127.400093 147.36284 127.962674 146.80026 
C 128.525254 146.237679 128.841353 145.474549 128.841353 144.678939 
C 128.841353 143.88333 128.525254 143.1202 127.962674 142.557619 
C 127.400093 141.995038 126.636963 141.678939 125.841353 141.678939 
C 125.045744 141.678939 124.282614 141.995038 123.720033 142.557619 
C 123.157452 143.1202 122.841353 143.88333 122.841353 144.678939 
C 122.841353 145.474549 123.157452 146.237679 123.720033 146.80026 
C 124.282614 147.36284 125.045744 147.678939 125.841353 147.678939 
L 125.841353 147.678939 
z
" clip-path="url(#p0ec853e70e)" style="fill: none; stroke: #ffa500"/>
   </g>
   <g id="PathCollection_5">
    <path d="M 64.059037 69.531395 
L 61.059037 75.531395 
L 67.059037 75.531395 
L 64.059037 69.531395 
z
" clip-path="url(#p0ec853e70e)" style="fill: none; stroke: #4682b4"/>
   </g>
   <g id="PathCollection_6">
    <path d="M 58.651458 61.629352 
L 55.651458 67.629352 
L 61.651458 67.629352 
L 58.651458 61.629352 
z
" clip-path="url(#p0ec853e70e)" style="fill: none; stroke: #ffa500"/>
   </g>
   <g id="PathCollection_7">
    <defs>
     <path id="m98c0eed03d" d="M -3 3 
L 3 3 
L 3 -3 
L -3 -3 
z
" style="stroke: #4682b4"/>
    </defs>
    <g clip-path="url(#p0ec853e70e)">
     <use xlink:href="#m98c0eed03d" x="123.372084" y="141.001253" style="fill: #4682b4; stroke: #4682b4"/>
    </g>
   </g>
   <g id="PathCollection_8">
    <defs>
     <path id="mc430413050" d="M -3 3 
L 3 3 
L 3 -3 
L -3 -3 
z
" style="stroke: #ffa500"/>
    </defs>
    <g clip-path="url(#p0ec853e70e)">
     <use xlink:href="#mc430413050" x="142.638827" y="169.155558" style="fill: #ffa500; stroke: #ffa500"/>
    </g>
   </g>
   <g id="PathCollection_9">
    <defs>
     <path id="m62bd6c7b81" d="M 0 3 
C 0.795609 3 1.55874 2.683901 2.12132 2.12132 
C 2.683901 1.55874 3 0.795609 3 0 
C 3 -0.795609 2.683901 -1.55874 2.12132 -2.12132 
C 1.55874 -2.683901 0.795609 -3 0 -3 
C -0.795609 -3 -1.55874 -2.683901 -2.12132 -2.12132 
C -2.683901 -1.55874 -3 -0.795609 -3 0 
C -3 0.795609 -2.683901 1.55874 -2.12132 2.12132 
C -1.55874 2.683901 -0.795609 3 0 3 
z
" style="stroke: #4682b4"/>
    </defs>
    <g clip-path="url(#p0ec853e70e)">
     <use xlink:href="#m62bd6c7b81" x="106.490612" y="132.975686" style="fill: #4682b4; stroke: #4682b4"/>
    </g>
   </g>
   <g id="PathCollection_10">
    <defs>
     <path id="md035111db1" d="M 0 3 
C 0.795609 3 1.55874 2.683901 2.12132 2.12132 
C 2.683901 1.55874 3 0.795609 3 0 
C 3 -0.795609 2.683901 -1.55874 2.12132 -2.12132 
C 1.55874 -2.683901 0.795609 -3 0 -3 
C -0.795609 -3 -1.55874 -2.683901 -2.12132 -2.12132 
C -2.683901 -1.55874 -3 -0.795609 -3 0 
C -3 0.795609 -2.683901 1.55874 -2.12132 2.12132 
C -1.55874 2.683901 -0.795609 3 0 3 
z
" style="stroke: #ffa500"/>
    </defs>
    <g clip-path="url(#p0ec853e70e)">
     <use xlink:href="#md035111db1" x="95.100717" y="116.331743" style="fill: #ffa500; stroke: #ffa500"/>
    </g>
   </g>
   <g id="PathCollection_11">
    <defs>
     <path id="m65528e361f" d="M 0 -3 
L -3 3 
L 3 3 
z
" style="stroke: #4682b4"/>
    </defs>
    <g clip-path="url(#p0ec853e70e)">
     <use xlink:href="#m65528e361f" x="53.24388" y="73.683564" style="fill: #4682b4; stroke: #4682b4"/>
    </g>
   </g>
   <g id="PathCollection_12">
    <defs>
     <path id="m539a736911" d="M 0 -3 
L -3 3 
L 3 3 
z
" style="stroke: #ffa500"/>
    </defs>
    <g clip-path="url(#p0ec853e70e)">
     <use xlink:href="#m539a736911" x="75.448932" y="106.131593" style="fill: #ffa500; stroke: #ffa500"/>
    </g>
   </g>
   <g id="matplotlib.axis_1">
    <g id="xtick_1">
     <g id="line2d_1">
      <defs>
       <path id="mdd76288448" d="M 0 0 
L 0 3.5 
" style="stroke: #000000; stroke-width: 0.8"/>
      </defs>
      <g>
       <use xlink:href="#mdd76288448" x="36" y="189" style="stroke: #000000; stroke-width: 0.8"/>
      </g>
     </g>
     <g id="text_1">
      <!-- $\mathdefault{10^{2}}$ -->
      <g transform="translate(27.2 203.598437) scale(0.1 -0.1)">
       <defs>
        <path id="DejaVuSans-31" d="M 794 531 
L 1825 531 
L 1825 4091 
L 703 3866 
L 703 4441 
L 1819 4666 
L 2450 4666 
L 2450 531 
L 3481 531 
L 3481 0 
L 794 0 
L 794 531 
z
" transform="scale(0.015625)"/>
        <path id="DejaVuSans-30" d="M 2034 4250 
Q 1547 4250 1301 3770 
Q 1056 3291 1056 2328 
Q 1056 1369 1301 889 
Q 1547 409 2034 409 
Q 2525 409 2770 889 
Q 3016 1369 3016 2328 
Q 3016 3291 2770 3770 
Q 2525 4250 2034 4250 
z
M 2034 4750 
Q 2819 4750 3233 4129 
Q 3647 3509 3647 2328 
Q 3647 1150 3233 529 
Q 2819 -91 2034 -91 
Q 1250 -91 836 529 
Q 422 1150 422 2328 
Q 422 3509 836 4129 
Q 1250 4750 2034 4750 
z
" transform="scale(0.015625)"/>
        <path id="DejaVuSans-32" d="M 1228 531 
L 3431 531 
L 3431 0 
L 469 0 
L 469 531 
Q 828 903 1448 1529 
Q 2069 2156 2228 2338 
Q 2531 2678 2651 2914 
Q 2772 3150 2772 3378 
Q 2772 3750 2511 3984 
Q 2250 4219 1831 4219 
Q 1534 4219 1204 4116 
Q 875 4013 500 3803 
L 500 4441 
Q 881 4594 1212 4672 
Q 1544 4750 1819 4750 
Q 2544 4750 2975 4387 
Q 3406 4025 3406 3419 
Q 3406 3131 3298 2873 
Q 3191 2616 2906 2266 
Q 2828 2175 2409 1742 
Q 1991 1309 1228 531 
z
" transform="scale(0.015625)"/>
       </defs>
       <use xlink:href="#DejaVuSans-31" transform="translate(0 0.765625)"/>
       <use xlink:href="#DejaVuSans-30" transform="translate(63.623047 0.765625)"/>
       <use xlink:href="#DejaVuSans-32" transform="translate(128.203125 39.046875) scale(0.7)"/>
      </g>
     </g>
    </g>
    <g id="xtick_2">
     <g id="line2d_2">
      <g>
       <use xlink:href="#mdd76288448" x="147.6" y="189" style="stroke: #000000; stroke-width: 0.8"/>
      </g>
     </g>
     <g id="text_2">
      <!-- $\mathdefault{10^{3}}$ -->
      <g transform="translate(138.8 203.598437) scale(0.1 -0.1)">
       <defs>
        <path id="DejaVuSans-33" d="M 2597 2516 
Q 3050 2419 3304 2112 
Q 3559 1806 3559 1356 
Q 3559 666 3084 287 
Q 2609 -91 1734 -91 
Q 1441 -91 1130 -33 
Q 819 25 488 141 
L 488 750 
Q 750 597 1062 519 
Q 1375 441 1716 441 
Q 2309 441 2620 675 
Q 2931 909 2931 1356 
Q 2931 1769 2642 2001 
Q 2353 2234 1838 2234 
L 1294 2234 
L 1294 2753 
L 1863 2753 
Q 2328 2753 2575 2939 
Q 2822 3125 2822 3475 
Q 2822 3834 2567 4026 
Q 2313 4219 1838 4219 
Q 1578 4219 1281 4162 
Q 984 4106 628 3988 
L 628 4550 
Q 988 4650 1302 4700 
Q 1616 4750 1894 4750 
Q 2613 4750 3031 4423 
Q 3450 4097 3450 3541 
Q 3450 3153 3228 2886 
Q 3006 2619 2597 2516 
z
" transform="scale(0.015625)"/>
       </defs>
       <use xlink:href="#DejaVuSans-31" transform="translate(0 0.765625)"/>
       <use xlink:href="#DejaVuSans-30" transform="translate(63.623047 0.765625)"/>
       <use xlink:href="#DejaVuSans-33" transform="translate(128.203125 39.046875) scale(0.7)"/>
      </g>
     </g>
    </g>
    <g id="xtick_3">
     <g id="line2d_3">
      <g>
       <use xlink:href="#mdd76288448" x="259.2" y="189" style="stroke: #000000; stroke-width: 0.8"/>
      </g>
     </g>
     <g id="text_3">
      <!-- $\mathdefault{10^{4}}$ -->
      <g transform="translate(250.4 203.598437) scale(0.1 -0.1)">
       <defs>
        <path id="DejaVuSans-34" d="M 2419 4116 
L 825 1625 
L 2419 1625 
L 2419 4116 
z
M 2253 4666 
L 3047 4666 
L 3047 1625 
L 3713 1625 
L 3713 1100 
L 3047 1100 
L 3047 0 
L 2419 0 
L 2419 1100 
L 313 1100 
L 313 1709 
L 2253 4666 
z
" transform="scale(0.015625)"/>
       </defs>
       <use xlink:href="#DejaVuSans-31" transform="translate(0 0.684375)"/>
       <use xlink:href="#DejaVuSans-30" transform="translate(63.623047 0.684375)"/>
       <use xlink:href="#DejaVuSans-34" transform="translate(128.203125 38.965625) scale(0.7)"/>
      </g>
     </g>
    </g>
    <g id="xtick_4">
     <g id="line2d_4">
      <defs>
       <path id="m56a82876b0" d="M 0 0 
L 0 2 
" style="stroke: #000000; stroke-width: 0.6"/>
      </defs>
      <g>
       <use xlink:href="#m56a82876b0" x="69.594948" y="189" style="stroke: #000000; stroke-width: 0.6"/>
      </g>
     </g>
    </g>
    <g id="xtick_5">
     <g id="line2d_5">
      <g>
       <use xlink:href="#m56a82876b0" x="89.246732" y="189" style="stroke: #000000; stroke-width: 0.6"/>
      </g>
     </g>
    </g>
    <g id="xtick_6">
     <g id="line2d_6">
      <g>
       <use xlink:href="#m56a82876b0" x="103.189895" y="189" style="stroke: #000000; stroke-width: 0.6"/>
      </g>
     </g>
    </g>
    <g id="xtick_7">
     <g id="line2d_7">
      <g>
       <use xlink:href="#m56a82876b0" x="114.005052" y="189" style="stroke: #000000; stroke-width: 0.6"/>
      </g>
     </g>
    </g>
    <g id="xtick_8">
     <g id="line2d_8">
      <g>
       <use xlink:href="#m56a82876b0" x="122.84168" y="189" style="stroke: #000000; stroke-width: 0.6"/>
      </g>
     </g>
    </g>
    <g id="xtick_9">
     <g id="line2d_9">
      <g>
       <use xlink:href="#m56a82876b0" x="130.312941" y="189" style="stroke: #000000; stroke-width: 0.6"/>
      </g>
     </g>
    </g>
    <g id="xtick_10">
     <g id="line2d_10">
      <g>
       <use xlink:href="#m56a82876b0" x="136.784843" y="189" style="stroke: #000000; stroke-width: 0.6"/>
      </g>
     </g>
    </g>
    <g id="xtick_11">
     <g id="line2d_11">
      <g>
       <use xlink:href="#m56a82876b0" x="142.493464" y="189" style="stroke: #000000; stroke-width: 0.6"/>
      </g>
     </g>
    </g>
    <g id="xtick_12">
     <g id="line2d_12">
      <g>
       <use xlink:href="#m56a82876b0" x="181.194948" y="189" style="stroke: #000000; stroke-width: 0.6"/>
      </g>
     </g>
    </g>
    <g id="xtick_13">
     <g id="line2d_13">
      <g>
       <use xlink:href="#m56a82876b0" x="200.846732" y="189" style="stroke: #000000; stroke-width: 0.6"/>
      </g>
     </g>
    </g>
    <g id="xtick_14">
     <g id="line2d_14">
      <g>
       <use xlink:href="#m56a82876b0" x="214.789895" y="189" style="stroke: #000000; stroke-width: 0.6"/>
      </g>
     </g>
    </g>
    <g id="xtick_15">
     <g id="line2d_15">
      <g>
       <use xlink:href="#m56a82876b0" x="225.605052" y="189" style="stroke: #000000; stroke-width: 0.6"/>
      </g>
     </g>
    </g>
    <g id="xtick_16">
     <g id="line2d_16">
      <g>
       <use xlink:href="#m56a82876b0" x="234.44168" y="189" style="stroke: #000000; stroke-width: 0.6"/>
      </g>
     </g>
    </g>
    <g id="xtick_17">
     <g id="line2d_17">
      <g>
       <use xlink:href="#m56a82876b0" x="241.912941" y="189" style="stroke: #000000; stroke-width: 0.6"/>
      </g>
     </g>
    </g>
    <g id="xtick_18">
     <g id="line2d_18">
      <g>
       <use xlink:href="#m56a82876b0" x="248.384843" y="189" style="stroke: #000000; stroke-width: 0.6"/>
      </g>
     </g>
    </g>
    <g id="xtick_19">
     <g id="line2d_19">
      <g>
       <use xlink:href="#m56a82876b0" x="254.093464" y="189" style="stroke: #000000; stroke-width: 0.6"/>
      </g>
     </g>
    </g>
    <g id="text_4">
     <!-- $Re_p$ (-) -->
     <g transform="translate(131.35 217.278125) scale(0.1 -0.1)">
      <defs>
       <path id="DejaVuSans-Oblique-52" d="M 1613 4147 
L 1294 2491 
L 2106 2491 
Q 2584 2491 2879 2755 
Q 3175 3019 3175 3444 
Q 3175 3784 2976 3965 
Q 2778 4147 2406 4147 
L 1613 4147 
z
M 2772 2241 
Q 2972 2194 3105 2009 
Q 3238 1825 3413 1275 
L 3809 0 
L 3144 0 
L 2778 1197 
Q 2638 1659 2453 1815 
Q 2269 1972 1888 1972 
L 1191 1972 
L 806 0 
L 172 0 
L 1081 4666 
L 2503 4666 
Q 3150 4666 3495 4373 
Q 3841 4081 3841 3531 
Q 3841 3044 3547 2687 
Q 3253 2331 2772 2241 
z
" transform="scale(0.015625)"/>
       <path id="DejaVuSans-Oblique-65" d="M 3078 2063 
Q 3088 2113 3092 2166 
Q 3097 2219 3097 2272 
Q 3097 2653 2873 2875 
Q 2650 3097 2266 3097 
Q 1838 3097 1509 2826 
Q 1181 2556 1013 2059 
L 3078 2063 
z
M 3578 1613 
L 903 1613 
Q 884 1494 878 1425 
Q 872 1356 872 1306 
Q 872 872 1139 634 
Q 1406 397 1894 397 
Q 2269 397 2603 481 
Q 2938 566 3225 728 
L 3116 159 
Q 2806 34 2476 -28 
Q 2147 -91 1806 -91 
Q 1078 -91 686 257 
Q 294 606 294 1247 
Q 294 1794 489 2264 
Q 684 2734 1063 3103 
Q 1306 3334 1642 3459 
Q 1978 3584 2356 3584 
Q 2950 3584 3301 3228 
Q 3653 2872 3653 2272 
Q 3653 2128 3634 1964 
Q 3616 1800 3578 1613 
z
" transform="scale(0.015625)"/>
       <path id="DejaVuSans-Oblique-70" d="M 3175 2156 
Q 3175 2616 2975 2859 
Q 2775 3103 2400 3103 
Q 2144 3103 1911 2972 
Q 1678 2841 1497 2591 
Q 1319 2344 1212 1994 
Q 1106 1644 1106 1300 
Q 1106 863 1306 627 
Q 1506 391 1875 391 
Q 2147 391 2380 519 
Q 2613 647 2778 891 
Q 2956 1147 3065 1494 
Q 3175 1841 3175 2156 
z
M 1394 2969 
Q 1625 3272 1939 3428 
Q 2253 3584 2638 3584 
Q 3175 3584 3472 3232 
Q 3769 2881 3769 2247 
Q 3769 1728 3584 1258 
Q 3400 788 3053 416 
Q 2822 169 2531 39 
Q 2241 -91 1919 -91 
Q 1547 -91 1294 64 
Q 1041 219 916 525 
L 556 -1331 
L -19 -1331 
L 922 3500 
L 1497 3500 
L 1394 2969 
z
" transform="scale(0.015625)"/>
       <path id="DejaVuSans-20" transform="scale(0.015625)"/>
       <path id="DejaVuSans-28" d="M 1984 4856 
Q 1566 4138 1362 3434 
Q 1159 2731 1159 2009 
Q 1159 1288 1364 580 
Q 1569 -128 1984 -844 
L 1484 -844 
Q 1016 -109 783 600 
Q 550 1309 550 2009 
Q 550 2706 781 3412 
Q 1013 4119 1484 4856 
L 1984 4856 
z
" transform="scale(0.015625)"/>
       <path id="DejaVuSans-2d" d="M 313 2009 
L 1997 2009 
L 1997 1497 
L 313 1497 
L 313 2009 
z
" transform="scale(0.015625)"/>
       <path id="DejaVuSans-29" d="M 513 4856 
L 1013 4856 
Q 1481 4119 1714 3412 
Q 1947 2706 1947 2009 
Q 1947 1309 1714 600 
Q 1481 -109 1013 -844 
L 513 -844 
Q 928 -128 1133 580 
Q 1338 1288 1338 2009 
Q 1338 2731 1133 3434 
Q 928 4138 513 4856 
z
" transform="scale(0.015625)"/>
      </defs>
      <use xlink:href="#DejaVuSans-Oblique-52" transform="translate(0 0.125)"/>
      <use xlink:href="#DejaVuSans-Oblique-65" transform="translate(69.482422 0.125)"/>
      <use xlink:href="#DejaVuSans-Oblique-70" transform="translate(131.005859 -16.28125) scale(0.7)"/>
      <use xlink:href="#DejaVuSans-20" transform="translate(178.173828 0.125)"/>
      <use xlink:href="#DejaVuSans-28" transform="translate(209.960938 0.125)"/>
      <use xlink:href="#DejaVuSans-2d" transform="translate(248.974609 0.125)"/>
      <use xlink:href="#DejaVuSans-29" transform="translate(285.058594 0.125)"/>
     </g>
    </g>
   </g>
   <g id="matplotlib.axis_2">
    <g id="ytick_1">
     <g id="line2d_20">
      <defs>
       <path id="macc31edb00" d="M 0 0 
L -3.5 0 
" style="stroke: #000000; stroke-width: 0.8"/>
      </defs>
      <g>
       <use xlink:href="#macc31edb00" x="36" y="189" style="stroke: #000000; stroke-width: 0.8"/>
      </g>
     </g>
     <g id="text_5">
      <!-- $\mathdefault{10^{-1}}$ -->
      <g transform="translate(5.5 192.799219) scale(0.1 -0.1)">
       <defs>
        <path id="DejaVuSans-2212" d="M 678 2272 
L 4684 2272 
L 4684 1741 
L 678 1741 
L 678 2272 
z
" transform="scale(0.015625)"/>
       </defs>
       <use xlink:href="#DejaVuSans-31" transform="translate(0 0.684375)"/>
       <use xlink:href="#DejaVuSans-30" transform="translate(63.623047 0.684375)"/>
       <use xlink:href="#DejaVuSans-2212" transform="translate(128.203125 38.965625) scale(0.7)"/>
       <use xlink:href="#DejaVuSans-31" transform="translate(186.855469 38.965625) scale(0.7)"/>
      </g>
     </g>
    </g>
    <g id="ytick_2">
     <g id="line2d_21">
      <g>
       <use xlink:href="#macc31edb00" x="36" y="107.46" style="stroke: #000000; stroke-width: 0.8"/>
      </g>
     </g>
     <g id="text_6">
      <!-- $\mathdefault{10^{0}}$ -->
      <g transform="translate(11.4 111.259219) scale(0.1 -0.1)">
       <use xlink:href="#DejaVuSans-31" transform="translate(0 0.765625)"/>
       <use xlink:href="#DejaVuSans-30" transform="translate(63.623047 0.765625)"/>
       <use xlink:href="#DejaVuSans-30" transform="translate(128.203125 39.046875) scale(0.7)"/>
      </g>
     </g>
    </g>
    <g id="ytick_3">
     <g id="line2d_22">
      <g>
       <use xlink:href="#macc31edb00" x="36" y="25.92" style="stroke: #000000; stroke-width: 0.8"/>
      </g>
     </g>
     <g id="text_7">
      <!-- $\mathdefault{10^{1}}$ -->
      <g transform="translate(11.4 29.719219) scale(0.1 -0.1)">
       <use xlink:href="#DejaVuSans-31" transform="translate(0 0.684375)"/>
       <use xlink:href="#DejaVuSans-30" transform="translate(63.623047 0.684375)"/>
       <use xlink:href="#DejaVuSans-31" transform="translate(128.203125 38.965625) scale(0.7)"/>
      </g>
     </g>
    </g>
    <g id="ytick_4">
     <g id="line2d_23">
      <defs>
       <path id="m1dd75dfde8" d="M 0 0 
L -2 0 
" style="stroke: #000000; stroke-width: 0.6"/>
      </defs>
      <g>
       <use xlink:href="#m1dd75dfde8" x="36" y="164.454014" style="stroke: #000000; stroke-width: 0.6"/>
      </g>
     </g>
    </g>
    <g id="ytick_5">
     <g id="line2d_24">
      <g>
       <use xlink:href="#m1dd75dfde8" x="36" y="150.095533" style="stroke: #000000; stroke-width: 0.6"/>
      </g>
     </g>
    </g>
    <g id="ytick_6">
     <g id="line2d_25">
      <g>
       <use xlink:href="#m1dd75dfde8" x="36" y="139.908028" style="stroke: #000000; stroke-width: 0.6"/>
      </g>
     </g>
    </g>
    <g id="ytick_7">
     <g id="line2d_26">
      <g>
       <use xlink:href="#m1dd75dfde8" x="36" y="132.005986" style="stroke: #000000; stroke-width: 0.6"/>
      </g>
     </g>
    </g>
    <g id="ytick_8">
     <g id="line2d_27">
      <g>
       <use xlink:href="#m1dd75dfde8" x="36" y="125.549547" style="stroke: #000000; stroke-width: 0.6"/>
      </g>
     </g>
    </g>
    <g id="ytick_9">
     <g id="line2d_28">
      <g>
       <use xlink:href="#m1dd75dfde8" x="36" y="120.090706" style="stroke: #000000; stroke-width: 0.6"/>
      </g>
     </g>
    </g>
    <g id="ytick_10">
     <g id="line2d_29">
      <g>
       <use xlink:href="#m1dd75dfde8" x="36" y="115.362042" style="stroke: #000000; stroke-width: 0.6"/>
      </g>
     </g>
    </g>
    <g id="ytick_11">
     <g id="line2d_30">
      <g>
       <use xlink:href="#m1dd75dfde8" x="36" y="111.191066" style="stroke: #000000; stroke-width: 0.6"/>
      </g>
     </g>
    </g>
    <g id="ytick_12">
     <g id="line2d_31">
      <g>
       <use xlink:href="#m1dd75dfde8" x="36" y="82.914014" style="stroke: #000000; stroke-width: 0.6"/>
      </g>
     </g>
    </g>
    <g id="ytick_13">
     <g id="line2d_32">
      <g>
       <use xlink:href="#m1dd75dfde8" x="36" y="68.555533" style="stroke: #000000; stroke-width: 0.6"/>
      </g>
     </g>
    </g>
    <g id="ytick_14">
     <g id="line2d_33">
      <g>
       <use xlink:href="#m1dd75dfde8" x="36" y="58.368028" style="stroke: #000000; stroke-width: 0.6"/>
      </g>
     </g>
    </g>
    <g id="ytick_15">
     <g id="line2d_34">
      <g>
       <use xlink:href="#m1dd75dfde8" x="36" y="50.465986" style="stroke: #000000; stroke-width: 0.6"/>
      </g>
     </g>
    </g>
    <g id="ytick_16">
     <g id="line2d_35">
      <g>
       <use xlink:href="#m1dd75dfde8" x="36" y="44.009547" style="stroke: #000000; stroke-width: 0.6"/>
      </g>
     </g>
    </g>
    <g id="ytick_17">
     <g id="line2d_36">
      <g>
       <use xlink:href="#m1dd75dfde8" x="36" y="38.550706" style="stroke: #000000; stroke-width: 0.6"/>
      </g>
     </g>
    </g>
    <g id="ytick_18">
     <g id="line2d_37">
      <g>
       <use xlink:href="#m1dd75dfde8" x="36" y="33.822042" style="stroke: #000000; stroke-width: 0.6"/>
      </g>
     </g>
    </g>
    <g id="ytick_19">
     <g id="line2d_38">
      <g>
       <use xlink:href="#m1dd75dfde8" x="36" y="29.651066" style="stroke: #000000; stroke-width: 0.6"/>
      </g>
     </g>
    </g>
    <g id="text_8">
     <!-- $C_D$ (-) -->
     <g transform="translate(-0.579688 121.11) rotate(-90) scale(0.1 -0.1)">
      <defs>
       <path id="DejaVuSans-Oblique-43" d="M 4447 4306 
L 4319 3641 
Q 4019 3944 3683 4091 
Q 3347 4238 2956 4238 
Q 2422 4238 2017 3981 
Q 1613 3725 1319 3200 
Q 1131 2863 1032 2486 
Q 934 2109 934 1728 
Q 934 1091 1264 756 
Q 1594 422 2222 422 
Q 2656 422 3056 561 
Q 3456 700 3834 978 
L 3688 231 
Q 3316 72 2936 -9 
Q 2556 -91 2175 -91 
Q 1278 -91 773 396 
Q 269 884 269 1753 
Q 269 2309 461 2846 
Q 653 3384 1013 3828 
Q 1394 4300 1883 4525 
Q 2372 4750 3022 4750 
Q 3422 4750 3780 4639 
Q 4138 4528 4447 4306 
z
" transform="scale(0.015625)"/>
       <path id="DejaVuSans-Oblique-44" d="M 1081 4666 
L 2438 4666 
Q 3519 4666 4070 4208 
Q 4622 3750 4622 2847 
Q 4622 2250 4412 1698 
Q 4203 1147 3834 769 
Q 3463 381 2891 190 
Q 2319 0 1538 0 
L 172 0 
L 1081 4666 
z
M 1613 4147 
L 909 519 
L 1734 519 
Q 2794 519 3375 1128 
Q 3956 1738 3956 2847 
Q 3956 3519 3581 3833 
Q 3206 4147 2406 4147 
L 1613 4147 
z
" transform="scale(0.015625)"/>
      </defs>
      <use xlink:href="#DejaVuSans-Oblique-43" transform="translate(0 0.125)"/>
      <use xlink:href="#DejaVuSans-Oblique-44" transform="translate(69.824219 -16.28125) scale(0.7)"/>
      <use xlink:href="#DejaVuSans-20" transform="translate(126.459961 0.125)"/>
      <use xlink:href="#DejaVuSans-28" transform="translate(158.24707 0.125)"/>
      <use xlink:href="#DejaVuSans-2d" transform="translate(197.260742 0.125)"/>
      <use xlink:href="#DejaVuSans-29" transform="translate(233.344727 0.125)"/>
     </g>
    </g>
   </g>
   <g id="line2d_39">
    <path d="M -1 89.985302 
L 12.829523 95.601049 
L 27.115752 101.161589 
L 42.116292 106.759613 
L 57.920432 112.418206 
L 74.79604 118.22178 
L 83.635644 121.09041 
L 94.261026 123.832144 
L 104.886409 126.343559 
L 115.422502 128.606446 
L 125.958596 130.64287 
L 136.494689 132.452829 
L 147.030783 134.036325 
L 157.477588 135.382808 
L 167.210081 136.436896 
L 167.656526 136.469344 
L 181.853465 138.157415 
L 193.639604 139.340442 
L 204.175698 140.177421 
L 213.818902 140.722687 
L 222.837084 141.011432 
L 231.319532 141.063127 
L 239.444824 140.891474 
L 247.212961 140.506491 
L 254.713231 139.913423 
L 261.945635 139.120819 
L 272.660306 137.88769 
L 289 136.651501 
L 289 136.651501 
" clip-path="url(#p0ec853e70e)" style="fill: none; stroke: #000000; stroke-width: 1.5; stroke-linecap: square"/>
   </g>
   <g id="patch_3">
    <path d="M 36 189 
L 36 25.92 
" style="fill: none; stroke: #000000; stroke-width: 0.8; stroke-linejoin: miter; stroke-linecap: square"/>
   </g>
   <g id="patch_4">
    <path d="M 36 189 
L 259.2 189 
" style="fill: none; stroke: #000000; stroke-width: 0.8; stroke-linejoin: miter; stroke-linecap: square"/>
   </g>
   <g id="legend_1">
    <g id="patch_5">
     <path d="M 35.768 329.031625 
L 332.121125 329.031625 
Q 334.121125 329.031625 334.121125 327.031625 
L 334.121125 223.616 
Q 334.121125 221.616 332.121125 221.616 
L 35.768 221.616 
Q 33.768 221.616 33.768 223.616 
L 33.768 327.031625 
Q 33.768 329.031625 35.768 329.031625 
z
" style="fill: #ffffff; opacity: 0.8; stroke: #cccccc; stroke-linejoin: miter"/>
    </g>
    <g id="line2d_40">
     <path style="fill: none; stroke: #000000; stroke-width: 1.5; stroke-linecap: square"/>
    </g>
    <g id="text_9">
     <!-- Drag curve for sphere -->
     <g transform="translate(65.768 233.214438) scale(0.1 -0.1)">
      <defs>
       <path id="DejaVuSans-44" d="M 1259 4147 
L 1259 519 
L 2022 519 
Q 2988 519 3436 956 
Q 3884 1394 3884 2338 
Q 3884 3275 3436 3711 
Q 2988 4147 2022 4147 
L 1259 4147 
z
M 628 4666 
L 1925 4666 
Q 3281 4666 3915 4102 
Q 4550 3538 4550 2338 
Q 4550 1131 3912 565 
Q 3275 0 1925 0 
L 628 0 
L 628 4666 
z
" transform="scale(0.015625)"/>
       <path id="DejaVuSans-72" d="M 2631 2963 
Q 2534 3019 2420 3045 
Q 2306 3072 2169 3072 
Q 1681 3072 1420 2755 
Q 1159 2438 1159 1844 
L 1159 0 
L 581 0 
L 581 3500 
L 1159 3500 
L 1159 2956 
Q 1341 3275 1631 3429 
Q 1922 3584 2338 3584 
Q 2397 3584 2469 3576 
Q 2541 3569 2628 3553 
L 2631 2963 
z
" transform="scale(0.015625)"/>
       <path id="DejaVuSans-61" d="M 2194 1759 
Q 1497 1759 1228 1600 
Q 959 1441 959 1056 
Q 959 750 1161 570 
Q 1363 391 1709 391 
Q 2188 391 2477 730 
Q 2766 1069 2766 1631 
L 2766 1759 
L 2194 1759 
z
M 3341 1997 
L 3341 0 
L 2766 0 
L 2766 531 
Q 2569 213 2275 61 
Q 1981 -91 1556 -91 
Q 1019 -91 701 211 
Q 384 513 384 1019 
Q 384 1609 779 1909 
Q 1175 2209 1959 2209 
L 2766 2209 
L 2766 2266 
Q 2766 2663 2505 2880 
Q 2244 3097 1772 3097 
Q 1472 3097 1187 3025 
Q 903 2953 641 2809 
L 641 3341 
Q 956 3463 1253 3523 
Q 1550 3584 1831 3584 
Q 2591 3584 2966 3190 
Q 3341 2797 3341 1997 
z
" transform="scale(0.015625)"/>
       <path id="DejaVuSans-67" d="M 2906 1791 
Q 2906 2416 2648 2759 
Q 2391 3103 1925 3103 
Q 1463 3103 1205 2759 
Q 947 2416 947 1791 
Q 947 1169 1205 825 
Q 1463 481 1925 481 
Q 2391 481 2648 825 
Q 2906 1169 2906 1791 
z
M 3481 434 
Q 3481 -459 3084 -895 
Q 2688 -1331 1869 -1331 
Q 1566 -1331 1297 -1286 
Q 1028 -1241 775 -1147 
L 775 -588 
Q 1028 -725 1275 -790 
Q 1522 -856 1778 -856 
Q 2344 -856 2625 -561 
Q 2906 -266 2906 331 
L 2906 616 
Q 2728 306 2450 153 
Q 2172 0 1784 0 
Q 1141 0 747 490 
Q 353 981 353 1791 
Q 353 2603 747 3093 
Q 1141 3584 1784 3584 
Q 2172 3584 2450 3431 
Q 2728 3278 2906 2969 
L 2906 3500 
L 3481 3500 
L 3481 434 
z
" transform="scale(0.015625)"/>
       <path id="DejaVuSans-63" d="M 3122 3366 
L 3122 2828 
Q 2878 2963 2633 3030 
Q 2388 3097 2138 3097 
Q 1578 3097 1268 2742 
Q 959 2388 959 1747 
Q 959 1106 1268 751 
Q 1578 397 2138 397 
Q 2388 397 2633 464 
Q 2878 531 3122 666 
L 3122 134 
Q 2881 22 2623 -34 
Q 2366 -91 2075 -91 
Q 1284 -91 818 406 
Q 353 903 353 1747 
Q 353 2603 823 3093 
Q 1294 3584 2113 3584 
Q 2378 3584 2631 3529 
Q 2884 3475 3122 3366 
z
" transform="scale(0.015625)"/>
       <path id="DejaVuSans-75" d="M 544 1381 
L 544 3500 
L 1119 3500 
L 1119 1403 
Q 1119 906 1312 657 
Q 1506 409 1894 409 
Q 2359 409 2629 706 
Q 2900 1003 2900 1516 
L 2900 3500 
L 3475 3500 
L 3475 0 
L 2900 0 
L 2900 538 
Q 2691 219 2414 64 
Q 2138 -91 1772 -91 
Q 1169 -91 856 284 
Q 544 659 544 1381 
z
M 1991 3584 
L 1991 3584 
z
" transform="scale(0.015625)"/>
       <path id="DejaVuSans-76" d="M 191 3500 
L 800 3500 
L 1894 563 
L 2988 3500 
L 3597 3500 
L 2284 0 
L 1503 0 
L 191 3500 
z
" transform="scale(0.015625)"/>
       <path id="DejaVuSans-65" d="M 3597 1894 
L 3597 1613 
L 953 1613 
Q 991 1019 1311 708 
Q 1631 397 2203 397 
Q 2534 397 2845 478 
Q 3156 559 3463 722 
L 3463 178 
Q 3153 47 2828 -22 
Q 2503 -91 2169 -91 
Q 1331 -91 842 396 
Q 353 884 353 1716 
Q 353 2575 817 3079 
Q 1281 3584 2069 3584 
Q 2775 3584 3186 3129 
Q 3597 2675 3597 1894 
z
M 3022 2063 
Q 3016 2534 2758 2815 
Q 2500 3097 2075 3097 
Q 1594 3097 1305 2825 
Q 1016 2553 972 2059 
L 3022 2063 
z
" transform="scale(0.015625)"/>
       <path id="DejaVuSans-66" d="M 2375 4863 
L 2375 4384 
L 1825 4384 
Q 1516 4384 1395 4259 
Q 1275 4134 1275 3809 
L 1275 3500 
L 2222 3500 
L 2222 3053 
L 1275 3053 
L 1275 0 
L 697 0 
L 697 3053 
L 147 3053 
L 147 3500 
L 697 3500 
L 697 3744 
Q 697 4328 969 4595 
Q 1241 4863 1831 4863 
L 2375 4863 
z
" transform="scale(0.015625)"/>
       <path id="DejaVuSans-6f" d="M 1959 3097 
Q 1497 3097 1228 2736 
Q 959 2375 959 1747 
Q 959 1119 1226 758 
Q 1494 397 1959 397 
Q 2419 397 2687 759 
Q 2956 1122 2956 1747 
Q 2956 2369 2687 2733 
Q 2419 3097 1959 3097 
z
M 1959 3584 
Q 2709 3584 3137 3096 
Q 3566 2609 3566 1747 
Q 3566 888 3137 398 
Q 2709 -91 1959 -91 
Q 1206 -91 779 398 
Q 353 888 353 1747 
Q 353 2609 779 3096 
Q 1206 3584 1959 3584 
z
" transform="scale(0.015625)"/>
       <path id="DejaVuSans-73" d="M 2834 3397 
L 2834 2853 
Q 2591 2978 2328 3040 
Q 2066 3103 1784 3103 
Q 1356 3103 1142 2972 
Q 928 2841 928 2578 
Q 928 2378 1081 2264 
Q 1234 2150 1697 2047 
L 1894 2003 
Q 2506 1872 2764 1633 
Q 3022 1394 3022 966 
Q 3022 478 2636 193 
Q 2250 -91 1575 -91 
Q 1294 -91 989 -36 
Q 684 19 347 128 
L 347 722 
Q 666 556 975 473 
Q 1284 391 1588 391 
Q 1994 391 2212 530 
Q 2431 669 2431 922 
Q 2431 1156 2273 1281 
Q 2116 1406 1581 1522 
L 1381 1569 
Q 847 1681 609 1914 
Q 372 2147 372 2553 
Q 372 3047 722 3315 
Q 1072 3584 1716 3584 
Q 2034 3584 2315 3537 
Q 2597 3491 2834 3397 
z
" transform="scale(0.015625)"/>
       <path id="DejaVuSans-70" d="M 1159 525 
L 1159 -1331 
L 581 -1331 
L 581 3500 
L 1159 3500 
L 1159 2969 
Q 1341 3281 1617 3432 
Q 1894 3584 2278 3584 
Q 2916 3584 3314 3078 
Q 3713 2572 3713 1747 
Q 3713 922 3314 415 
Q 2916 -91 2278 -91 
Q 1894 -91 1617 61 
Q 1341 213 1159 525 
z
M 3116 1747 
Q 3116 2381 2855 2742 
Q 2594 3103 2138 3103 
Q 1681 3103 1420 2742 
Q 1159 2381 1159 1747 
Q 1159 1113 1420 752 
Q 1681 391 2138 391 
Q 2594 391 2855 752 
Q 3116 1113 3116 1747 
z
" transform="scale(0.015625)"/>
       <path id="DejaVuSans-68" d="M 3513 2113 
L 3513 0 
L 2938 0 
L 2938 2094 
Q 2938 2591 2744 2837 
Q 2550 3084 2163 3084 
Q 1697 3084 1428 2787 
Q 1159 2491 1159 1978 
L 1159 0 
L 581 0 
L 581 4863 
L 1159 4863 
L 1159 2956 
Q 1366 3272 1645 3428 
Q 1925 3584 2291 3584 
Q 2894 3584 3203 3211 
Q 3513 2838 3513 2113 
z
" transform="scale(0.015625)"/>
      </defs>
      <use xlink:href="#DejaVuSans-44"/>
      <use xlink:href="#DejaVuSans-72" x="77.001953"/>
      <use xlink:href="#DejaVuSans-61" x="118.115234"/>
      <use xlink:href="#DejaVuSans-67" x="179.394531"/>
      <use xlink:href="#DejaVuSans-20" x="242.871094"/>
      <use xlink:href="#DejaVuSans-63" x="274.658203"/>
      <use xlink:href="#DejaVuSans-75" x="329.638672"/>
      <use xlink:href="#DejaVuSans-72" x="393.017578"/>
      <use xlink:href="#DejaVuSans-76" x="434.130859"/>
      <use xlink:href="#DejaVuSans-65" x="493.310547"/>
      <use xlink:href="#DejaVuSans-20" x="554.833984"/>
      <use xlink:href="#DejaVuSans-66" x="586.621094"/>
      <use xlink:href="#DejaVuSans-6f" x="621.826172"/>
      <use xlink:href="#DejaVuSans-72" x="683.007812"/>
      <use xlink:href="#DejaVuSans-20" x="724.121094"/>
      <use xlink:href="#DejaVuSans-73" x="755.908203"/>
      <use xlink:href="#DejaVuSans-70" x="808.007812"/>
      <use xlink:href="#DejaVuSans-68" x="871.484375"/>
      <use xlink:href="#DejaVuSans-65" x="934.863281"/>
      <use xlink:href="#DejaVuSans-72" x="996.386719"/>
      <use xlink:href="#DejaVuSans-65" x="1035.25"/>
     </g>
    </g>
    <g id="PathCollection_13">
     <path style="fill: none; stroke: #4682b4"/>
    </g>
    <g id="text_10">
     <!-- PTFE_2x1_fast mode -->
     <g transform="translate(65.768 247.892562) scale(0.1 -0.1)">
      <defs>
       <path id="DejaVuSans-50" d="M 1259 4147 
L 1259 2394 
L 2053 2394 
Q 2494 2394 2734 2622 
Q 2975 2850 2975 3272 
Q 2975 3691 2734 3919 
Q 2494 4147 2053 4147 
L 1259 4147 
z
M 628 4666 
L 2053 4666 
Q 2838 4666 3239 4311 
Q 3641 3956 3641 3272 
Q 3641 2581 3239 2228 
Q 2838 1875 2053 1875 
L 1259 1875 
L 1259 0 
L 628 0 
L 628 4666 
z
" transform="scale(0.015625)"/>
       <path id="DejaVuSans-54" d="M -19 4666 
L 3928 4666 
L 3928 4134 
L 2272 4134 
L 2272 0 
L 1638 0 
L 1638 4134 
L -19 4134 
L -19 4666 
z
" transform="scale(0.015625)"/>
       <path id="DejaVuSans-46" d="M 628 4666 
L 3309 4666 
L 3309 4134 
L 1259 4134 
L 1259 2759 
L 3109 2759 
L 3109 2228 
L 1259 2228 
L 1259 0 
L 628 0 
L 628 4666 
z
" transform="scale(0.015625)"/>
       <path id="DejaVuSans-45" d="M 628 4666 
L 3578 4666 
L 3578 4134 
L 1259 4134 
L 1259 2753 
L 3481 2753 
L 3481 2222 
L 1259 2222 
L 1259 531 
L 3634 531 
L 3634 0 
L 628 0 
L 628 4666 
z
" transform="scale(0.015625)"/>
       <path id="DejaVuSans-5f" d="M 3263 -1063 
L 3263 -1509 
L -63 -1509 
L -63 -1063 
L 3263 -1063 
z
" transform="scale(0.015625)"/>
       <path id="DejaVuSans-78" d="M 3513 3500 
L 2247 1797 
L 3578 0 
L 2900 0 
L 1881 1375 
L 863 0 
L 184 0 
L 1544 1831 
L 300 3500 
L 978 3500 
L 1906 2253 
L 2834 3500 
L 3513 3500 
z
" transform="scale(0.015625)"/>
       <path id="DejaVuSans-74" d="M 1172 4494 
L 1172 3500 
L 2356 3500 
L 2356 3053 
L 1172 3053 
L 1172 1153 
Q 1172 725 1289 603 
Q 1406 481 1766 481 
L 2356 481 
L 2356 0 
L 1766 0 
Q 1100 0 847 248 
Q 594 497 594 1153 
L 594 3053 
L 172 3053 
L 172 3500 
L 594 3500 
L 594 4494 
L 1172 4494 
z
" transform="scale(0.015625)"/>
       <path id="DejaVuSans-6d" d="M 3328 2828 
Q 3544 3216 3844 3400 
Q 4144 3584 4550 3584 
Q 5097 3584 5394 3201 
Q 5691 2819 5691 2113 
L 5691 0 
L 5113 0 
L 5113 2094 
Q 5113 2597 4934 2840 
Q 4756 3084 4391 3084 
Q 3944 3084 3684 2787 
Q 3425 2491 3425 1978 
L 3425 0 
L 2847 0 
L 2847 2094 
Q 2847 2600 2669 2842 
Q 2491 3084 2119 3084 
Q 1678 3084 1418 2786 
Q 1159 2488 1159 1978 
L 1159 0 
L 581 0 
L 581 3500 
L 1159 3500 
L 1159 2956 
Q 1356 3278 1631 3431 
Q 1906 3584 2284 3584 
Q 2666 3584 2933 3390 
Q 3200 3197 3328 2828 
z
" transform="scale(0.015625)"/>
       <path id="DejaVuSans-64" d="M 2906 2969 
L 2906 4863 
L 3481 4863 
L 3481 0 
L 2906 0 
L 2906 525 
Q 2725 213 2448 61 
Q 2172 -91 1784 -91 
Q 1150 -91 751 415 
Q 353 922 353 1747 
Q 353 2572 751 3078 
Q 1150 3584 1784 3584 
Q 2172 3584 2448 3432 
Q 2725 3281 2906 2969 
z
M 947 1747 
Q 947 1113 1208 752 
Q 1469 391 1925 391 
Q 2381 391 2643 752 
Q 2906 1113 2906 1747 
Q 2906 2381 2643 2742 
Q 2381 3103 1925 3103 
Q 1469 3103 1208 2742 
Q 947 2381 947 1747 
z
" transform="scale(0.015625)"/>
      </defs>
      <use xlink:href="#DejaVuSans-50"/>
      <use xlink:href="#DejaVuSans-54" x="60.302734"/>
      <use xlink:href="#DejaVuSans-46" x="121.386719"/>
      <use xlink:href="#DejaVuSans-45" x="178.90625"/>
      <use xlink:href="#DejaVuSans-5f" x="242.089844"/>
      <use xlink:href="#DejaVuSans-32" x="292.089844"/>
      <use xlink:href="#DejaVuSans-78" x="355.712891"/>
      <use xlink:href="#DejaVuSans-31" x="414.892578"/>
      <use xlink:href="#DejaVuSans-5f" x="478.515625"/>
      <use xlink:href="#DejaVuSans-66" x="528.515625"/>
      <use xlink:href="#DejaVuSans-61" x="563.720703"/>
      <use xlink:href="#DejaVuSans-73" x="625"/>
      <use xlink:href="#DejaVuSans-74" x="677.099609"/>
      <use xlink:href="#DejaVuSans-20" x="716.308594"/>
      <use xlink:href="#DejaVuSans-6d" x="748.095703"/>
      <use xlink:href="#DejaVuSans-6f" x="845.507812"/>
      <use xlink:href="#DejaVuSans-64" x="906.689453"/>
      <use xlink:href="#DejaVuSans-65" x="970.166016"/>
     </g>
    </g>
    <g id="PathCollection_14">
     <path style="fill: none; stroke: #ffa500"/>
    </g>
    <g id="text_11">
     <!-- PTFE_2x1_slow mode -->
     <g transform="translate(65.768 262.848813) scale(0.1 -0.1)">
      <defs>
       <path id="DejaVuSans-6c" d="M 603 4863 
L 1178 4863 
L 1178 0 
L 603 0 
L 603 4863 
z
" transform="scale(0.015625)"/>
       <path id="DejaVuSans-77" d="M 269 3500 
L 844 3500 
L 1563 769 
L 2278 3500 
L 2956 3500 
L 3675 769 
L 4391 3500 
L 4966 3500 
L 4050 0 
L 3372 0 
L 2619 2869 
L 1863 0 
L 1184 0 
L 269 3500 
z
" transform="scale(0.015625)"/>
      </defs>
      <use xlink:href="#DejaVuSans-50"/>
      <use xlink:href="#DejaVuSans-54" x="60.302734"/>
      <use xlink:href="#DejaVuSans-46" x="121.386719"/>
      <use xlink:href="#DejaVuSans-45" x="178.90625"/>
      <use xlink:href="#DejaVuSans-5f" x="242.089844"/>
      <use xlink:href="#DejaVuSans-32" x="292.089844"/>
      <use xlink:href="#DejaVuSans-78" x="355.712891"/>
      <use xlink:href="#DejaVuSans-31" x="414.892578"/>
      <use xlink:href="#DejaVuSans-5f" x="478.515625"/>
      <use xlink:href="#DejaVuSans-73" x="528.515625"/>
      <use xlink:href="#DejaVuSans-6c" x="580.615234"/>
      <use xlink:href="#DejaVuSans-6f" x="608.398438"/>
      <use xlink:href="#DejaVuSans-77" x="669.580078"/>
      <use xlink:href="#DejaVuSans-20" x="751.367188"/>
      <use xlink:href="#DejaVuSans-6d" x="783.154297"/>
      <use xlink:href="#DejaVuSans-6f" x="880.566406"/>
      <use xlink:href="#DejaVuSans-64" x="941.748047"/>
      <use xlink:href="#DejaVuSans-65" x="1005.224609"/>
     </g>
    </g>
    <g id="PathCollection_15">
     <path d="M 47.768 278.180063 
C 48.563609 278.180063 49.32674 277.863964 49.88932 277.301383 
C 50.451901 276.738802 50.768 275.975672 50.768 275.180063 
C 50.768 274.384453 50.451901 273.621323 49.88932 273.058742 
C 49.32674 272.496161 48.563609 272.180063 47.768 272.180063 
C 46.972391 272.180063 46.20926 272.496161 45.64668 273.058742 
C 45.084099 273.621323 44.768 274.384453 44.768 275.180063 
C 44.768 275.975672 45.084099 276.738802 45.64668 277.301383 
C 46.20926 277.863964 46.972391 278.180063 47.768 278.180063 
" style="fill: none; stroke: #4682b4"/>
    </g>
    <g id="text_12">
     <!-- POM_2x1_fast mode -->
     <g transform="translate(65.768 277.805063) scale(0.1 -0.1)">
      <defs>
       <path id="DejaVuSans-4f" d="M 2522 4238 
Q 1834 4238 1429 3725 
Q 1025 3213 1025 2328 
Q 1025 1447 1429 934 
Q 1834 422 2522 422 
Q 3209 422 3611 934 
Q 4013 1447 4013 2328 
Q 4013 3213 3611 3725 
Q 3209 4238 2522 4238 
z
M 2522 4750 
Q 3503 4750 4090 4092 
Q 4678 3434 4678 2328 
Q 4678 1225 4090 567 
Q 3503 -91 2522 -91 
Q 1538 -91 948 565 
Q 359 1222 359 2328 
Q 359 3434 948 4092 
Q 1538 4750 2522 4750 
z
" transform="scale(0.015625)"/>
       <path id="DejaVuSans-4d" d="M 628 4666 
L 1569 4666 
L 2759 1491 
L 3956 4666 
L 4897 4666 
L 4897 0 
L 4281 0 
L 4281 4097 
L 3078 897 
L 2444 897 
L 1241 4097 
L 1241 0 
L 628 0 
L 628 4666 
z
" transform="scale(0.015625)"/>
      </defs>
      <use xlink:href="#DejaVuSans-50"/>
      <use xlink:href="#DejaVuSans-4f" x="60.302734"/>
      <use xlink:href="#DejaVuSans-4d" x="139.013672"/>
      <use xlink:href="#DejaVuSans-5f" x="225.292969"/>
      <use xlink:href="#DejaVuSans-32" x="275.292969"/>
      <use xlink:href="#DejaVuSans-78" x="338.916016"/>
      <use xlink:href="#DejaVuSans-31" x="398.095703"/>
      <use xlink:href="#DejaVuSans-5f" x="461.71875"/>
      <use xlink:href="#DejaVuSans-66" x="511.71875"/>
      <use xlink:href="#DejaVuSans-61" x="546.923828"/>
      <use xlink:href="#DejaVuSans-73" x="608.203125"/>
      <use xlink:href="#DejaVuSans-74" x="660.302734"/>
      <use xlink:href="#DejaVuSans-20" x="699.511719"/>
      <use xlink:href="#DejaVuSans-6d" x="731.298828"/>
      <use xlink:href="#DejaVuSans-6f" x="828.710938"/>
      <use xlink:href="#DejaVuSans-64" x="889.892578"/>
      <use xlink:href="#DejaVuSans-65" x="953.369141"/>
     </g>
    </g>
    <g id="PathCollection_16">
     <path d="M 47.768 293.136313 
C 48.563609 293.136313 49.32674 292.820214 49.88932 292.257633 
C 50.451901 291.695052 50.768 290.931922 50.768 290.136313 
C 50.768 289.340703 50.451901 288.577573 49.88932 288.014992 
C 49.32674 287.452411 48.563609 287.136313 47.768 287.136313 
C 46.972391 287.136313 46.20926 287.452411 45.64668 288.014992 
C 45.084099 288.577573 44.768 289.340703 44.768 290.136313 
C 44.768 290.931922 45.084099 291.695052 45.64668 292.257633 
C 46.20926 292.820214 46.972391 293.136313 47.768 293.136313 
" style="fill: none; stroke: #ffa500"/>
    </g>
    <g id="text_13">
     <!-- POM_2x1_slow mode -->
     <g transform="translate(65.768 292.761313) scale(0.1 -0.1)">
      <use xlink:href="#DejaVuSans-50"/>
      <use xlink:href="#DejaVuSans-4f" x="60.302734"/>
      <use xlink:href="#DejaVuSans-4d" x="139.013672"/>
      <use xlink:href="#DejaVuSans-5f" x="225.292969"/>
      <use xlink:href="#DejaVuSans-32" x="275.292969"/>
      <use xlink:href="#DejaVuSans-78" x="338.916016"/>
      <use xlink:href="#DejaVuSans-31" x="398.095703"/>
      <use xlink:href="#DejaVuSans-5f" x="461.71875"/>
      <use xlink:href="#DejaVuSans-73" x="511.71875"/>
      <use xlink:href="#DejaVuSans-6c" x="563.818359"/>
      <use xlink:href="#DejaVuSans-6f" x="591.601562"/>
      <use xlink:href="#DejaVuSans-77" x="652.783203"/>
      <use xlink:href="#DejaVuSans-20" x="734.570312"/>
      <use xlink:href="#DejaVuSans-6d" x="766.357422"/>
      <use xlink:href="#DejaVuSans-6f" x="863.769531"/>
      <use xlink:href="#DejaVuSans-64" x="924.951172"/>
      <use xlink:href="#DejaVuSans-65" x="988.427734"/>
     </g>
    </g>
    <g id="PathCollection_17">
     <path style="fill: none; stroke: #4682b4"/>
    </g>
    <g id="text_14">
     <!-- PS_2x1_fast mode -->
     <g transform="translate(65.768 307.717562) scale(0.1 -0.1)">
      <defs>
       <path id="DejaVuSans-53" d="M 3425 4513 
L 3425 3897 
Q 3066 4069 2747 4153 
Q 2428 4238 2131 4238 
Q 1616 4238 1336 4038 
Q 1056 3838 1056 3469 
Q 1056 3159 1242 3001 
Q 1428 2844 1947 2747 
L 2328 2669 
Q 3034 2534 3370 2195 
Q 3706 1856 3706 1288 
Q 3706 609 3251 259 
Q 2797 -91 1919 -91 
Q 1588 -91 1214 -16 
Q 841 59 441 206 
L 441 856 
Q 825 641 1194 531 
Q 1563 422 1919 422 
Q 2459 422 2753 634 
Q 3047 847 3047 1241 
Q 3047 1584 2836 1778 
Q 2625 1972 2144 2069 
L 1759 2144 
Q 1053 2284 737 2584 
Q 422 2884 422 3419 
Q 422 4038 858 4394 
Q 1294 4750 2059 4750 
Q 2388 4750 2728 4690 
Q 3069 4631 3425 4513 
z
" transform="scale(0.015625)"/>
      </defs>
      <use xlink:href="#DejaVuSans-50"/>
      <use xlink:href="#DejaVuSans-53" x="60.302734"/>
      <use xlink:href="#DejaVuSans-5f" x="123.779297"/>
      <use xlink:href="#DejaVuSans-32" x="173.779297"/>
      <use xlink:href="#DejaVuSans-78" x="237.402344"/>
      <use xlink:href="#DejaVuSans-31" x="296.582031"/>
      <use xlink:href="#DejaVuSans-5f" x="360.205078"/>
      <use xlink:href="#DejaVuSans-66" x="410.205078"/>
      <use xlink:href="#DejaVuSans-61" x="445.410156"/>
      <use xlink:href="#DejaVuSans-73" x="506.689453"/>
      <use xlink:href="#DejaVuSans-74" x="558.789062"/>
      <use xlink:href="#DejaVuSans-20" x="597.998047"/>
      <use xlink:href="#DejaVuSans-6d" x="629.785156"/>
      <use xlink:href="#DejaVuSans-6f" x="727.197266"/>
      <use xlink:href="#DejaVuSans-64" x="788.378906"/>
      <use xlink:href="#DejaVuSans-65" x="851.855469"/>
     </g>
    </g>
    <g id="PathCollection_18">
     <path style="fill: none; stroke: #ffa500"/>
    </g>
    <g id="text_15">
     <!-- PS_2x1_slow mode -->
     <g transform="translate(65.768 322.673812) scale(0.1 -0.1)">
      <use xlink:href="#DejaVuSans-50"/>
      <use xlink:href="#DejaVuSans-53" x="60.302734"/>
      <use xlink:href="#DejaVuSans-5f" x="123.779297"/>
      <use xlink:href="#DejaVuSans-32" x="173.779297"/>
      <use xlink:href="#DejaVuSans-78" x="237.402344"/>
      <use xlink:href="#DejaVuSans-31" x="296.582031"/>
      <use xlink:href="#DejaVuSans-5f" x="360.205078"/>
      <use xlink:href="#DejaVuSans-73" x="410.205078"/>
      <use xlink:href="#DejaVuSans-6c" x="462.304688"/>
      <use xlink:href="#DejaVuSans-6f" x="490.087891"/>
      <use xlink:href="#DejaVuSans-77" x="551.269531"/>
      <use xlink:href="#DejaVuSans-20" x="633.056641"/>
      <use xlink:href="#DejaVuSans-6d" x="664.84375"/>
      <use xlink:href="#DejaVuSans-6f" x="762.255859"/>
      <use xlink:href="#DejaVuSans-64" x="823.4375"/>
      <use xlink:href="#DejaVuSans-65" x="886.914062"/>
     </g>
    </g>
    <g id="PathCollection_19">
     <g>
      <use xlink:href="#m98c0eed03d" x="205.446125" y="230.589438" style="fill: #4682b4; stroke: #4682b4"/>
     </g>
    </g>
    <g id="text_16">
     <!-- PTFE_1x1_fast mode -->
     <g transform="translate(223.446125 233.214438) scale(0.1 -0.1)">
      <use xlink:href="#DejaVuSans-50"/>
      <use xlink:href="#DejaVuSans-54" x="60.302734"/>
      <use xlink:href="#DejaVuSans-46" x="121.386719"/>
      <use xlink:href="#DejaVuSans-45" x="178.90625"/>
      <use xlink:href="#DejaVuSans-5f" x="242.089844"/>
      <use xlink:href="#DejaVuSans-31" x="292.089844"/>
      <use xlink:href="#DejaVuSans-78" x="355.712891"/>
      <use xlink:href="#DejaVuSans-31" x="414.892578"/>
      <use xlink:href="#DejaVuSans-5f" x="478.515625"/>
      <use xlink:href="#DejaVuSans-66" x="528.515625"/>
      <use xlink:href="#DejaVuSans-61" x="563.720703"/>
      <use xlink:href="#DejaVuSans-73" x="625"/>
      <use xlink:href="#DejaVuSans-74" x="677.099609"/>
      <use xlink:href="#DejaVuSans-20" x="716.308594"/>
      <use xlink:href="#DejaVuSans-6d" x="748.095703"/>
      <use xlink:href="#DejaVuSans-6f" x="845.507812"/>
      <use xlink:href="#DejaVuSans-64" x="906.689453"/>
      <use xlink:href="#DejaVuSans-65" x="970.166016"/>
     </g>
    </g>
    <g id="PathCollection_20">
     <g>
      <use xlink:href="#mc430413050" x="205.446125" y="245.545687" style="fill: #ffa500; stroke: #ffa500"/>
     </g>
    </g>
    <g id="text_17">
     <!-- PTFE_1x1_slow mode -->
     <g transform="translate(223.446125 248.170687) scale(0.1 -0.1)">
      <use xlink:href="#DejaVuSans-50"/>
      <use xlink:href="#DejaVuSans-54" x="60.302734"/>
      <use xlink:href="#DejaVuSans-46" x="121.386719"/>
      <use xlink:href="#DejaVuSans-45" x="178.90625"/>
      <use xlink:href="#DejaVuSans-5f" x="242.089844"/>
      <use xlink:href="#DejaVuSans-31" x="292.089844"/>
      <use xlink:href="#DejaVuSans-78" x="355.712891"/>
      <use xlink:href="#DejaVuSans-31" x="414.892578"/>
      <use xlink:href="#DejaVuSans-5f" x="478.515625"/>
      <use xlink:href="#DejaVuSans-73" x="528.515625"/>
      <use xlink:href="#DejaVuSans-6c" x="580.615234"/>
      <use xlink:href="#DejaVuSans-6f" x="608.398438"/>
      <use xlink:href="#DejaVuSans-77" x="669.580078"/>
      <use xlink:href="#DejaVuSans-20" x="751.367188"/>
      <use xlink:href="#DejaVuSans-6d" x="783.154297"/>
      <use xlink:href="#DejaVuSans-6f" x="880.566406"/>
      <use xlink:href="#DejaVuSans-64" x="941.748047"/>
      <use xlink:href="#DejaVuSans-65" x="1005.224609"/>
     </g>
    </g>
    <g id="PathCollection_21">
     <g>
      <use xlink:href="#m62bd6c7b81" x="205.446125" y="260.501937" style="fill: #4682b4; stroke: #4682b4"/>
     </g>
    </g>
    <g id="text_18">
     <!-- POM_1x1_fast mode -->
     <g transform="translate(223.446125 263.126937) scale(0.1 -0.1)">
      <use xlink:href="#DejaVuSans-50"/>
      <use xlink:href="#DejaVuSans-4f" x="60.302734"/>
      <use xlink:href="#DejaVuSans-4d" x="139.013672"/>
      <use xlink:href="#DejaVuSans-5f" x="225.292969"/>
      <use xlink:href="#DejaVuSans-31" x="275.292969"/>
      <use xlink:href="#DejaVuSans-78" x="338.916016"/>
      <use xlink:href="#DejaVuSans-31" x="398.095703"/>
      <use xlink:href="#DejaVuSans-5f" x="461.71875"/>
      <use xlink:href="#DejaVuSans-66" x="511.71875"/>
      <use xlink:href="#DejaVuSans-61" x="546.923828"/>
      <use xlink:href="#DejaVuSans-73" x="608.203125"/>
      <use xlink:href="#DejaVuSans-74" x="660.302734"/>
      <use xlink:href="#DejaVuSans-20" x="699.511719"/>
      <use xlink:href="#DejaVuSans-6d" x="731.298828"/>
      <use xlink:href="#DejaVuSans-6f" x="828.710938"/>
      <use xlink:href="#DejaVuSans-64" x="889.892578"/>
      <use xlink:href="#DejaVuSans-65" x="953.369141"/>
     </g>
    </g>
    <g id="PathCollection_22">
     <g>
      <use xlink:href="#md035111db1" x="205.446125" y="275.458188" style="fill: #ffa500; stroke: #ffa500"/>
     </g>
    </g>
    <g id="text_19">
     <!-- POM_1x1_slow mode -->
     <g transform="translate(223.446125 278.083188) scale(0.1 -0.1)">
      <use xlink:href="#DejaVuSans-50"/>
      <use xlink:href="#DejaVuSans-4f" x="60.302734"/>
      <use xlink:href="#DejaVuSans-4d" x="139.013672"/>
      <use xlink:href="#DejaVuSans-5f" x="225.292969"/>
      <use xlink:href="#DejaVuSans-31" x="275.292969"/>
      <use xlink:href="#DejaVuSans-78" x="338.916016"/>
      <use xlink:href="#DejaVuSans-31" x="398.095703"/>
      <use xlink:href="#DejaVuSans-5f" x="461.71875"/>
      <use xlink:href="#DejaVuSans-73" x="511.71875"/>
      <use xlink:href="#DejaVuSans-6c" x="563.818359"/>
      <use xlink:href="#DejaVuSans-6f" x="591.601562"/>
      <use xlink:href="#DejaVuSans-77" x="652.783203"/>
      <use xlink:href="#DejaVuSans-20" x="734.570312"/>
      <use xlink:href="#DejaVuSans-6d" x="766.357422"/>
      <use xlink:href="#DejaVuSans-6f" x="863.769531"/>
      <use xlink:href="#DejaVuSans-64" x="924.951172"/>
      <use xlink:href="#DejaVuSans-65" x="988.427734"/>
     </g>
    </g>
    <g id="PathCollection_23">
     <g>
      <use xlink:href="#m65528e361f" x="205.446125" y="290.414438" style="fill: #4682b4; stroke: #4682b4"/>
     </g>
    </g>
    <g id="text_20">
     <!-- PS_1x1_fast mode -->
     <g transform="translate(223.446125 293.039438) scale(0.1 -0.1)">
      <use xlink:href="#DejaVuSans-50"/>
      <use xlink:href="#DejaVuSans-53" x="60.302734"/>
      <use xlink:href="#DejaVuSans-5f" x="123.779297"/>
      <use xlink:href="#DejaVuSans-31" x="173.779297"/>
      <use xlink:href="#DejaVuSans-78" x="237.402344"/>
      <use xlink:href="#DejaVuSans-31" x="296.582031"/>
      <use xlink:href="#DejaVuSans-5f" x="360.205078"/>
      <use xlink:href="#DejaVuSans-66" x="410.205078"/>
      <use xlink:href="#DejaVuSans-61" x="445.410156"/>
      <use xlink:href="#DejaVuSans-73" x="506.689453"/>
      <use xlink:href="#DejaVuSans-74" x="558.789062"/>
      <use xlink:href="#DejaVuSans-20" x="597.998047"/>
      <use xlink:href="#DejaVuSans-6d" x="629.785156"/>
      <use xlink:href="#DejaVuSans-6f" x="727.197266"/>
      <use xlink:href="#DejaVuSans-64" x="788.378906"/>
      <use xlink:href="#DejaVuSans-65" x="851.855469"/>
     </g>
    </g>
    <g id="PathCollection_24">
     <g>
      <use xlink:href="#m539a736911" x="205.446125" y="305.370688" style="fill: #ffa500; stroke: #ffa500"/>
     </g>
    </g>
    <g id="text_21">
     <!-- PS_1x1_slow mode -->
     <g transform="translate(223.446125 307.995688) scale(0.1 -0.1)">
      <use xlink:href="#DejaVuSans-50"/>
      <use xlink:href="#DejaVuSans-53" x="60.302734"/>
      <use xlink:href="#DejaVuSans-5f" x="123.779297"/>
      <use xlink:href="#DejaVuSans-31" x="173.779297"/>
      <use xlink:href="#DejaVuSans-78" x="237.402344"/>
      <use xlink:href="#DejaVuSans-31" x="296.582031"/>
      <use xlink:href="#DejaVuSans-5f" x="360.205078"/>
      <use xlink:href="#DejaVuSans-73" x="410.205078"/>
      <use xlink:href="#DejaVuSans-6c" x="462.304688"/>
      <use xlink:href="#DejaVuSans-6f" x="490.087891"/>
      <use xlink:href="#DejaVuSans-77" x="551.269531"/>
      <use xlink:href="#DejaVuSans-20" x="633.056641"/>
      <use xlink:href="#DejaVuSans-6d" x="664.84375"/>
      <use xlink:href="#DejaVuSans-6f" x="762.255859"/>
      <use xlink:href="#DejaVuSans-64" x="823.4375"/>
      <use xlink:href="#DejaVuSans-65" x="886.914062"/>
     </g>
    </g>
   </g>
  </g>
 </g>
 <defs>
  <clipPath id="p0ec853e70e">
   <rect x="36" y="25.92" width="223.2" height="163.08"/>
  </clipPath>
 </defs>
</svg>
